<svg width="16" height="31" viewBox="0 0 16 31" fill="none" xmlns="http://www.w3.org/2000/svg"><path d="M15.398.006L11.56 0C7.248 0 4.462 2.994 4.462 7.63v3.517H.603c-.333 0-.603.283-.603.632v5.097c0 .349.27.632.603.632h3.859v12.86c0 .35.27.632.603.632H10.1c.333 0 .603-.283.603-.632v-12.86h4.512c.333 0 .603-.283.603-.632l.002-5.097a.649.649 0 0 0-.177-.447.59.59 0 0 0-.427-.185h-4.513V8.165c0-1.433.326-2.16 2.109-2.16l2.585-.002c.333 0 .603-.283.603-.632V.639c0-.35-.27-.632-.602-.633z" fill="#fff"/></svg>