<svg width="32" height="32" viewBox="0 0 32 32" fill="none" xmlns="http://www.w3.org/2000/svg"><path d="M22 0H10C4.478 0 0 4.478 0 10v12c0 5.522 4.478 10 10 10h12c5.522 0 10-4.478 10-10V10c0-5.522-4.478-10-10-10zm7 22c0 3.86-3.14 7-7 7H10c-3.86 0-7-3.14-7-7V10c0-3.86 3.14-7 7-7h12c3.86 0 7 3.14 7 7v12z" fill="#fff"/><path d="M16 8a8 8 0 1 0 0 16 8 8 0 0 0 0-16zm0 13c-2.756 0-5-2.244-5-5 0-2.758 2.244-5 5-5s5 2.242 5 5c0 2.756-2.244 5-5 5zm8.6-12.534a1.066 1.066 0 1 0 0-2.132 1.066 1.066 0 0 0 0 2.132z" fill="#fff"/></svg>