<svg width="54" height="54" viewBox="0 0 54 54" fill="none" xmlns="http://www.w3.org/2000/svg"><path d="M5.872 13.027a1 1 0 0 0 0 2v-2zm15.883-4.412l.488.872-.488-.872zm13.093-7.338l-.49-.873.49.873zm6.648 7.338l-.87.494.87-.494zm-3.708-6.52l.87-.494-.87.494zm15.175 23.84h1v-1h-1v1zm0 11.909v1h1v-1h-1zM44.303 52H6.413v2h37.89v-2zM2 47.587v-33.56H0v33.56h2zm10.096-34.56H5.872v2h6.224v-2zm37.62 0h-5.143v2h5.143v-2zm-5.143 0H12.096v2h32.477v-2zM12.585 14.9l9.658-5.413-.977-1.745-9.659 5.413.978 1.745zm9.658-5.413l13.094-7.338-.978-1.745-13.093 7.338.977 1.745zm-15.83.128h15.341v-2H6.414v2zm35.083 0h2.807v-2h-2.807v2zM36.919 2.59l3.707 6.519 1.739-.989-3.707-6.519-1.739.989zm3.707 6.519l3.078 5.413 1.739-.989-3.078-5.413-1.739.989zM6.413 52A4.413 4.413 0 0 1 2 47.587H0A6.413 6.413 0 0 0 6.413 54v-2zM35.337 2.15a1.165 1.165 0 0 1 1.582.44l1.739-.989a3.165 3.165 0 0 0-4.3-1.197l.979 1.745zM44.303 54a6.413 6.413 0 0 0 6.413-6.413h-2A4.413 4.413 0 0 1 44.303 52v2zm6.413-39.972a6.413 6.413 0 0 0-6.413-6.413v2a4.413 4.413 0 0 1 4.413 4.412h2zM2 14.028a4.413 4.413 0 0 1 4.413-4.413v-2A6.413 6.413 0 0 0 0 14.027h2zm49.963 11.908v11.908h2V25.936h-2zM41.596 36.844a4.954 4.954 0 0 1-4.954-4.954h-2a6.954 6.954 0 0 0 6.954 6.954v-2zm0-11.908a6.954 6.954 0 0 0-6.954 6.954h2a4.954 4.954 0 0 1 4.954-4.954v-2zm0 2h8.12v-2h-8.12v2zm8.12 0h3.247v-2h-3.247v2zm-1-12.909v11.909h2V14.027h-2zm0 23.817v9.743h2v-9.743h-2zm4.247-1h-3.247v2h3.247v-2zm-3.247 0h-8.12v2h8.12v-2zm-7.578-4.872a.083.083 0 0 1-.083-.082h-2c0 1.15.932 2.082 2.083 2.082v-2zm.082-.082a.083.083 0 0 1-.082.082v2c1.15 0 2.082-.932 2.082-2.082h-2zm-.082-.083c.045 0 .082.037.082.083h2c0-1.15-.932-2.083-2.082-2.083v2zm0-2c-1.15 0-2.083.933-2.083 2.083h2c0-.046.037-.083.083-.083v-2z" fill="#F47821"/></svg>