<svg width="97" height="121" viewBox="0 0 97 121" fill="none" xmlns="http://www.w3.org/2000/svg"><rect x="39" width="50" height="50" rx="25" fill="#fff" fill-opacity=".3"/><path d="M70.397 9.006L66.56 9c-4.312 0-7.098 2.994-7.098 7.63v3.517h-3.859c-.333 0-.603.283-.603.632v5.097c0 .349.27.632.603.632h3.859v12.86c0 .35.27.632.603.632H65.1c.333 0 .603-.283.603-.632v-12.86h4.512c.333 0 .603-.283.603-.632l.002-5.097a.649.649 0 0 0-.176-.447.59.59 0 0 0-.428-.185h-4.513v-2.982c0-1.433.326-2.161 2.109-2.161h2.585c.333 0 .603-.284.603-.633V9.639c0-.35-.27-.632-.603-.633z" fill="#fff"/></svg>