<svg xmlns="http://www.w3.org/2000/svg" xmlns:xlink="http://www.w3.org/1999/xlink" width="89" height="70" viewBox="0 0 89 70"><defs><path id="r8dta" d="M442.75 1773.2c.4.72 1.1 1.12 1.91 1.12h3.42l2.92 1.63c.3.2.7.3 1.1.3.41 0 .71-.1 1.12-.3l3.02-1.73h3.52c.8 0 1.5-.4 1.91-1.12l1.71-3.05 2.92-1.73c.7-.4 1.1-1.12 1.1-1.93v-3.46l1.82-3.15c.4-.71.4-1.53 0-2.14l-1.81-3.15v-3.36c0-.81-.4-1.52-1.11-1.93l-2.92-1.73-1.71-3.05a2.15 2.15 0 0 0-1.91-1.12h-3.52l-3.02-1.73c-.7-.4-1.51-.4-2.12 0l-3.02 1.73h-3.42c-.8 0-1.5.4-1.91 1.12l-1.71 3.05"/><path id="r8dtb" d="M441 1783.5l2.98 4.5 5.96-12"/><path id="r8dtc" d="M464.82 1771.5l4.46 12h-5.95l-2.98 4.5-5.95-12"/><path id="r8dtd" d="M452.17 1750.5c4.52 0 8.18 3.7 8.18 8.25a8.22 8.22 0 0 1-8.18 8.25 8.22 8.22 0 0 1-8.19-8.25 8.22 8.22 0 0 1 8.19-8.25z"/><path id="r8dte" d="M461.17 1788.81a20.97 20.97 0 0 1-2.23 5.38 20.8 20.8 0 0 1-17.93 10.31 20.7 20.7 0 0 1-15.62-7.1"/><path id="r8dtf" d="M409.76 1735.5c15.61 0 28.27 12.76 28.27 28.5s-12.66 28.5-28.27 28.5-28.27-12.76-28.27-28.5 12.66-28.5 28.27-28.5z"/><path id="r8dtg" d="M405.3 1752v22.5"/><path id="r8dth" d="M405.3 1752h7.44a5.98 5.98 0 0 1 5.95 6c0 3.31-2.67 6-5.95 6h-7.44"/><path id="r8dti" d="M402.32 1770h10.42"/></defs><g><g transform="translate(-381 -1735)"><g><g><use fill="#fff" fill-opacity="0" stroke="#232323" stroke-miterlimit="50" stroke-width="2" xlink:href="#r8dta"/></g><g><use fill="#fff" fill-opacity="0" stroke="#232323" stroke-linecap="round" stroke-linejoin="round" stroke-miterlimit="50" stroke-width="2" xlink:href="#r8dtb"/></g><g><use fill="#fff" fill-opacity="0" stroke="#232323" stroke-linecap="round" stroke-linejoin="round" stroke-miterlimit="50" stroke-width="2" xlink:href="#r8dtc"/></g><g><use fill="#fff" fill-opacity="0" stroke="#232323" stroke-miterlimit="50" stroke-width="2" xlink:href="#r8dtd"/></g></g><g><use fill="#fff" fill-opacity="0" stroke="#232323" stroke-linecap="round" stroke-linejoin="round" stroke-miterlimit="50" stroke-width="2" xlink:href="#r8dte"/></g><g><use fill="#fff" fill-opacity="0" stroke="#e91e31" stroke-linecap="round" stroke-linejoin="round" stroke-miterlimit="50" stroke-width="2" xlink:href="#r8dtf"/></g><g><use fill="#fff" fill-opacity="0" stroke="#e91e31" stroke-linecap="round" stroke-linejoin="round" stroke-miterlimit="50" stroke-width="2" xlink:href="#r8dtg"/></g><g><use fill="#fff" fill-opacity="0" stroke="#e91e31" stroke-linecap="round" stroke-linejoin="round" stroke-miterlimit="50" stroke-width="2" xlink:href="#r8dth"/></g><g><use fill="#fff" fill-opacity="0" stroke="#e91e31" stroke-linecap="round" stroke-linejoin="round" stroke-miterlimit="50" stroke-width="2" xlink:href="#r8dti"/></g></g></g></svg>