<svg xmlns="http://www.w3.org/2000/svg" xmlns:xlink="http://www.w3.org/1999/xlink" width="66" height="98" viewBox="0 0 66 98"><defs><path id="eqvla" d="M805.43 805.29a25.92 25.92 0 0 0-2.43 10.36c0 1.86-.59 2.5-2.35 2.5H790h-10.55c-2.04 0-2.45-.54-2.45-2.44 0-2.78-.84-7.3-2.43-10.42-2.43-4.77-7.71-9.88-7.71-20.58 0-10.69 8-23.14 23.14-23.14s23.14 12.45 23.14 23.14c0 10.7-5.28 15.81-7.71 20.58z"/><path id="eqvlb" d="M790 791.14a5.14 5.14 0 1 1 0 10.29 5.14 5.14 0 0 1 0-10.29z"/><path id="eqvlc" d="M790 801.43v15.43s-.2-.5 0 0"/><path id="eqvld" d="M786.14 824.57h14.15v10.29c0 1.99-1.05 3.85-3.86 3.85h-5.14-7.72c-2.8 0-3.86-1.86-3.86-3.85v-10.29"/><path id="eqvle" d="M781 831h12.86"/><path id="eqvlf" d="M790 752.66v-10.37"/><path id="eqvlg" d="M766.43 762.43l-9.29-9.29"/><path id="eqvlh" d="M813.37 762.63l9.49-9.49"/></defs><g><g transform="translate(-757 -741)"><g><use fill="#fff" fill-opacity="0" stroke="#232323" stroke-linecap="round" stroke-linejoin="round" stroke-miterlimit="50" stroke-width="2" xlink:href="#eqvla"/></g><g><use fill="#fff" fill-opacity="0" stroke="#232323" stroke-linecap="round" stroke-linejoin="round" stroke-miterlimit="50" stroke-width="2" xlink:href="#eqvlb"/></g><g><use fill="#fff" fill-opacity="0" stroke="#232323" stroke-linecap="round" stroke-linejoin="round" stroke-miterlimit="50" stroke-width="2" xlink:href="#eqvlc"/></g><g><use fill="#fff" fill-opacity="0" stroke="#232323" stroke-linecap="round" stroke-linejoin="round" stroke-miterlimit="50" stroke-width="2" xlink:href="#eqvld"/></g><g><use fill="#fff" fill-opacity="0" stroke="#232323" stroke-linecap="round" stroke-linejoin="round" stroke-miterlimit="50" stroke-width="2" xlink:href="#eqvle"/></g></g><g transform="translate(-757 -741)"><use fill="#a1acae" xlink:href="#eqvlf"/><use fill="#fff" fill-opacity="0" stroke="#e91e31" stroke-linecap="round" stroke-linejoin="round" stroke-miterlimit="50" stroke-width="2" xlink:href="#eqvlf"/></g><g transform="translate(-757 -741)"><use fill="#a1acae" xlink:href="#eqvlg"/><use fill="#fff" fill-opacity="0" stroke="#e91e31" stroke-linecap="round" stroke-linejoin="round" stroke-miterlimit="50" stroke-width="2" xlink:href="#eqvlg"/></g><g transform="translate(-757 -741)"><use fill="#a1acae" xlink:href="#eqvlh"/><use fill="#fff" fill-opacity="0" stroke="#e91e31" stroke-linecap="round" stroke-linejoin="round" stroke-miterlimit="50" stroke-width="2" xlink:href="#eqvlh"/></g></g></svg>