<svg xmlns="http://www.w3.org/2000/svg" xmlns:xlink="http://www.w3.org/1999/xlink" width="83" height="85" viewBox="0 0 83 85"><defs><path id="wtt6a" d="M411.72 1116.88A41.62 41.62 0 0 1 384 1077.6a41.56 41.56 0 0 1 41.5-41.61 41.56 41.56 0 0 1 41.5 41.61 41.52 41.52 0 0 1-10.61 27.8"/><path id="wtt6c" d="M417.67 1045.08l-.47-.76c-1.47-2.53 0-5.55 0-5.55s.2 2.53.47 6.3zm.91 8.95l-.34.27c-.18-3.4-.4-6.61-.57-9.22 1.64 2.54 4.4 6.17.91 8.95zm-.34.27c.66 12 1.03 26.33-1.04 24.7-.33-.26-.7-.48-1.07-.66-3.59-1.74-8.83-.1-10 .66-1.28.83-4.15 1.39-4.15 1.39s.24-4.19-1.38-5.55c-1.62-1.37-3.1-5.52-2.77-6.94.33-1.41 4.15-1.38 4.15-1.38s12.06-8.9 16.26-12.22zm-1.04 46.9a17.54 17.54 0 0 1-1.38 5.54c-.46.98-1.56.79-2.77 0-1.2-.78-.62-4.8-2.77-6.93a261.37 261.37 0 0 0-11.06-9.71c-2.12-1.73 0-6.94 0-6.94s-1.64-2.32-3.6-5.3c9.05 8.84 21.75 21.6 21.58 23.33zm-21.58-23.35c-4.98-4.87-8.85-8.56-8.85-8.56s.6-.32 2.76 0c2.17.32 1.47 1.27 4.15 5.55.65 1.04 1.32 2.06 1.94 3.01z"/><path id="wtt6d" d="M432.42 1038.77s1.6 2.85 0 4.17l-.18.14.18-4.3zm-.18 4.3l-.12 3.22c-.53-.04-.95-.17-1.09-.58-.39-1.15-.23-1.44 1.21-2.63zm2.94 4.03c1.04 1.4 1.11 6.8 0 8.32-1.1 1.52 1.07 3.18 1.39 2.77.31-.4 1.34-2.36 2.76-1.38 1.42.98.54 2.66-1.38 4.16a30.1 30.1 0 0 0-5.1 5.4c-.6.82-1.09 1.65-1.41 2.42-.2.46.32-13.45.68-22.5 1 .09 2.39-.11 3.06.8zm20.35 32.38c.52-.95 1.12-1.64 1.79-1.87 2.49-.83.91-1.86 2.76-2.77 1.86-.91 5.54.5 5.54 1.39 0 .88-11.53 5.85-10.1 3.25z"/><path id="wtt6e" d="M434.8 1109.47c.27.19.65.28 1.02.28.38 0 .66-.09 1.03-.28l2.8-1.6h3.28a2 2 0 0 0 1.78-1.03l1.59-2.82 2.71-1.6a2.02 2.02 0 0 0 1.03-1.79v-3.2l1.69-2.91c.37-.66.37-1.41 0-1.98l-1.69-2.92v-3.1c0-.75-.37-1.41-1.03-1.79l-2.71-1.6-1.6-2.82a2 2 0 0 0-1.77-1.03h-3.27l-2.81-1.6a1.85 1.85 0 0 0-1.96 0l-2.81 1.6h-3.18a2 2 0 0 0-1.78 1.03l-1.6 2.82-2.9 1.7a2.02 2.02 0 0 0-1.02 1.78v3.3l-1.6 2.72a1.9 1.9 0 0 0-.27 1.04c0 .38.1.66.28 1.03l1.59 2.73v3.2c0 .75.37 1.41 1.03 1.79l2.9 1.69 1.59 2.82a2 2 0 0 0 1.78 1.04h3.18z"/><path id="wtt6f" d="M424.12 1105.35l-4.15 11.1h5.53l2.77 4.16 5.53-11.1"/><path id="wtt6g" d="M447.63 1105.35l4.15 11.1h-5.53l-2.77 4.16-5.53-11.1"/><path id="wtt6h" d="M435.88 1085.94a7.62 7.62 0 1 1-.03 15.23 7.62 7.62 0 0 1 .02-15.23z"/><clipPath id="wtt6b"><use fill="#fff" xlink:href="#wtt6a"/></clipPath></defs><g><g transform="translate(-384 -1036)"><g><g><use fill="#fff" fill-opacity="0" stroke="#232323" stroke-miterlimit="50" stroke-width="4" clip-path="url(&quot;#wtt6b&quot;)" xlink:href="#wtt6a"/></g><g><use fill="#fff" fill-opacity="0" stroke="#232323" stroke-miterlimit="50" stroke-width="2" xlink:href="#wtt6c"/></g><g><use fill="#fff" fill-opacity="0" stroke="#232323" stroke-linecap="round" stroke-linejoin="round" stroke-miterlimit="50" stroke-width="2" xlink:href="#wtt6d"/></g></g><g><g><use fill="#fff" fill-opacity="0" stroke="#e91e31" stroke-miterlimit="50" stroke-width="2" xlink:href="#wtt6e"/></g><g><use fill="#fff" fill-opacity="0" stroke="#e91e31" stroke-linecap="round" stroke-linejoin="round" stroke-miterlimit="50" stroke-width="2" xlink:href="#wtt6f"/></g><g><use fill="#fff" fill-opacity="0" stroke="#e91e31" stroke-linecap="round" stroke-linejoin="round" stroke-miterlimit="50" stroke-width="2" xlink:href="#wtt6g"/></g><g><use fill="#fff" fill-opacity="0" stroke="#e91e31" stroke-miterlimit="50" stroke-width="2" xlink:href="#wtt6h"/></g></g></g></g></svg>