<svg xmlns="http://www.w3.org/2000/svg" xmlns:xlink="http://www.w3.org/1999/xlink" width="100" height="77" viewBox="0 0 100 77"><defs><path id="zm6xa" d="M442.8 719.12a27.23 27.23 0 0 1 6.13 8.08c2.79-1.4 5.94-2.2 9.28-2.2 11.43 0 20.7 9.21 20.7 20.57a20.64 20.64 0 0 1-20.7 20.57h-62.1a16.77 16.77 0 0 1-16.82-16.71 16.77 16.77 0 0 1 18.87-16.58 26.81 26.81 0 0 1 10.5-15.6"/><path id="zm6xb" d="M427.16 713.43c2.86 0 5.18 2.3 5.18 5.14a5.16 5.16 0 0 1-5.18 5.14 5.16 5.16 0 0 1-5.17-5.14 5.16 5.16 0 0 1 5.17-5.14z"/><path id="zm6xc" d="M414.34 712.42a14.24 14.24 0 0 1 12.82-8c5.65 0 10.52 3.28 12.82 8.01"/><path id="zm6xd" d="M408.63 706.8a22 22 0 0 1 18.53-10.09 22 22 0 0 1 18.54 10.1"/><path id="zm6xe" d="M404.1 702a28.48 28.48 0 0 1 23.06-11.71c9.52 0 17.95 4.64 23.12 11.78"/></defs><g><g opacity=".99" transform="translate(-379 -690)"><use fill="#fff" fill-opacity="0" stroke="#232323" stroke-linecap="round" stroke-linejoin="round" stroke-miterlimit="50" stroke-width="2" xlink:href="#zm6xa"/></g><g transform="translate(-379 -690)"><use fill="#fff" fill-opacity="0" stroke="#e91e31" stroke-linecap="round" stroke-linejoin="round" stroke-miterlimit="50" stroke-width="2" xlink:href="#zm6xb"/></g><g transform="translate(-379 -690)"><use fill="#fff" fill-opacity="0" stroke="#e91e31" stroke-linecap="round" stroke-linejoin="round" stroke-miterlimit="50" stroke-width="2" xlink:href="#zm6xc"/></g><g transform="translate(-379 -690)"><use fill="#fff" fill-opacity="0" stroke="#e91e31" stroke-linecap="round" stroke-linejoin="round" stroke-miterlimit="50" stroke-width="2" xlink:href="#zm6xd"/></g><g transform="translate(-379 -690)"><use fill="#fff" fill-opacity="0" stroke="#e91e31" stroke-linecap="round" stroke-linejoin="round" stroke-miterlimit="50" stroke-width="2" xlink:href="#zm6xe"/></g></g></svg>