<svg xmlns="http://www.w3.org/2000/svg" xmlns:xlink="http://www.w3.org/1999/xlink" width="74" height="71" viewBox="0 0 74 71"><defs><path id="eh8pa" d="M767.35 1867.5v4.12h37.3v-4.13z"/><path id="eh8pb" d="M774.25 1867.5s.95-5.52 11.06-5.52"/><path id="eh8pc" d="M797.75 1867.5s-2.33-5.52-12.44-5.52"/><path id="eh8pd" d="M785.3 1861.98v-45.45 45.45"/><path id="eh8pe" d="M781.16 1816.53h8.3v-11.02l-4.15-4.13-4.15 4.13v11.02"/><path id="eh8pf" d="M765.96 1813.77h40.08"/><path id="eh8pg" d="M774.25 1813.77l6.91-6.88"/><path id="eh8ph" d="M789.45 1806.89l6.91 6.88"/><path id="eh8pi" d="M765.96 1813.77a5.52 5.52 0 0 1-11.05 0"/><path id="eh8pj" d="M817.1 1813.77a5.52 5.52 0 0 1-11.06 0"/><path id="eh8pk" d="M757.67 1819.28l-6.9 19.29h19.34l-6.91-19.29"/><path id="eh8pl" d="M771.5 1839.94c0 6.09-4.96 11.02-11.06 11.02-6.1 0-11.06-4.93-11.06-11.02"/><path id="eh8pm" d="M806.76 1824.97l-4.87 13.6h19.35l-4.92-13.72"/><path id="eh8pn" d="M822.62 1839.94c0 6.09-4.95 11.02-11.06 11.02-6.1 0-11.05-4.93-11.05-11.02"/><path id="eh8po" d="M760.44 1811.02a1.38 1.38 0 1 1 0 2.76 1.38 1.38 0 0 1 0-2.76zm51.12 0a1.38 1.38 0 1 1 0 2.76 1.38 1.38 0 0 1 0-2.76z"/></defs><g><g transform="translate(-749 -1801)"><g><use fill="#fff" fill-opacity="0" stroke="#232323" stroke-linecap="round" stroke-linejoin="round" stroke-miterlimit="50" stroke-width="2" xlink:href="#eh8pa"/></g><g><use fill="#fff" fill-opacity="0" stroke="#232323" stroke-linecap="round" stroke-linejoin="round" stroke-miterlimit="50" stroke-width="2" xlink:href="#eh8pb"/></g><g><use fill="#fff" fill-opacity="0" stroke="#232323" stroke-linecap="round" stroke-linejoin="round" stroke-miterlimit="50" stroke-width="2" xlink:href="#eh8pc"/></g><g><use fill="#fff" fill-opacity="0" stroke="#232323" stroke-linecap="round" stroke-linejoin="round" stroke-miterlimit="50" stroke-width="2" xlink:href="#eh8pd"/></g><g><use fill="#fff" fill-opacity="0" stroke="#232323" stroke-linecap="round" stroke-linejoin="round" stroke-miterlimit="50" stroke-width="2" xlink:href="#eh8pe"/></g><g><use fill="#fff" fill-opacity="0" stroke="#232323" stroke-linecap="round" stroke-linejoin="round" stroke-miterlimit="50" stroke-width="2" xlink:href="#eh8pf"/></g><g><use fill="#fff" fill-opacity="0" stroke="#232323" stroke-linecap="round" stroke-linejoin="round" stroke-miterlimit="50" stroke-width="2" xlink:href="#eh8pg"/></g><g><use fill="#fff" fill-opacity="0" stroke="#232323" stroke-linecap="round" stroke-linejoin="round" stroke-miterlimit="50" stroke-width="2" xlink:href="#eh8ph"/></g><g><use fill="#fff" fill-opacity="0" stroke="#232323" stroke-linecap="round" stroke-linejoin="round" stroke-miterlimit="50" stroke-width="2" xlink:href="#eh8pi"/></g><g><use fill="#fff" fill-opacity="0" stroke="#232323" stroke-linecap="round" stroke-linejoin="round" stroke-miterlimit="50" stroke-width="2" xlink:href="#eh8pj"/></g><g><g><use fill="#fff" fill-opacity="0" stroke="#232323" stroke-linecap="round" stroke-linejoin="round" stroke-miterlimit="50" stroke-width="2" xlink:href="#eh8pk"/></g><g><use fill="#fff" fill-opacity="0" stroke="#232323" stroke-linecap="round" stroke-linejoin="round" stroke-miterlimit="50" stroke-width="2" xlink:href="#eh8pl"/></g></g><g><g><use fill="#fff" fill-opacity="0" stroke="#e91e31" stroke-linecap="round" stroke-linejoin="round" stroke-miterlimit="50" stroke-width="2" xlink:href="#eh8pm"/></g><g><use fill="#fff" fill-opacity="0" stroke="#e91e31" stroke-linecap="round" stroke-linejoin="round" stroke-miterlimit="50" stroke-width="2" xlink:href="#eh8pn"/></g></g><g><use fill="#e91e31" xlink:href="#eh8po"/></g></g></g></svg>