<svg xmlns="http://www.w3.org/2000/svg" xmlns:xlink="http://www.w3.org/1999/xlink" width="59" height="78" viewBox="0 0 59 78"><defs><path id="cvwya" d="M1292.2 1380.3h31.14c.19 0 23.36 23.03 23.36 23.22v50.32a3.88 3.88 0 0 1-3.9 3.87h-50.6a3.88 3.88 0 0 1-3.9-3.87v-69.68a3.88 3.88 0 0 1 3.9-3.87z"/><path id="cvwyb" d="M1319.45 1437.06s-3.73 9.9-1.3 10.33c2.42.43 5.19-5.16 5.19-5.16l2.6 2.58 2.6-6.45 1.29 3.87s.7-4.74 9.08-5.17"/><path id="cvwyc" d="M1323.34 1380.3v23.22h23.36"/></defs><g><g transform="translate(-1288 -1380)"><use fill="#fff" fill-opacity="0" stroke="#232323" stroke-linecap="round" stroke-linejoin="round" stroke-miterlimit="50" stroke-width="2" xlink:href="#cvwya"/></g><g transform="translate(-1288 -1380)"><use fill="#fff" fill-opacity="0" stroke="#e91e31" stroke-linecap="round" stroke-linejoin="round" stroke-miterlimit="50" stroke-width="2" xlink:href="#cvwyb"/></g><g transform="translate(-1288 -1380)"><use fill="#fff" fill-opacity="0" stroke="#232323" stroke-linecap="round" stroke-linejoin="round" stroke-miterlimit="50" stroke-width="2" xlink:href="#cvwyc"/></g></g></svg>