<svg xmlns="http://www.w3.org/2000/svg" xmlns:xlink="http://www.w3.org/1999/xlink" width="82" height="81" viewBox="0 0 82 81"><defs><path id="tbjba" d="M1301.42 1116.03A41.02 41.02 0 0 1 1314 1036a41 41 0 0 1 31.66 67.06"/><path id="tbjbc" d="M1305.64 1043.9c-1.17-2.43.16-5.17.16-5.17l-.16 5.16zm.16.3c1.45 2.5 5.17 6.54 1.37 9.57l-1.93 1.5.4-11.38.16.31zm-.56 11.06c-.4 10.56-.91 22.26-1.27 22.14-3.49-1.17-8.04.28-9.1.97-1.27.81-4.1 1.36-4.1 1.36s.23-4.12-1.37-5.46c-1.6-1.35-3.06-5.44-2.73-6.84.32-1.39 4.1-1.36 4.1-1.36s9.48-6.98 14.47-10.8zm-.8 50.44c-.46.96-1.55.77-2.74 0-1.2-.77-.61-4.73-2.73-6.83-2.13-2.1-8.85-7.86-10.94-9.57-1.46-1.2-.87-4.08-.39-5.69 8 10.03 17.05 21.55 16.8 22.09zm-16.8-22.09c-6.27-7.86-11.9-14.81-11.9-14.81s.59-.31 2.73 0 1.44 1.25 4.1 5.47c2.65 4.21 5.46 8.2 5.46 8.2s-.18.45-.39 1.14z"/><path id="tbjbd" d="M1320.83 1038.73s1.59 2.8 0 4.1l-.15.13.15-4.23zm-.15 4.23l-.11 3.19c-.54-.05-.96-.17-1.1-.58-.4-1.15-.23-1.42 1.21-2.61zm2.89 3.97c1.02 1.39 1.09 6.7 0 8.2-1.1 1.5 1.05 3.13 1.36 2.74.32-.4 1.33-2.33 2.74-1.37 1.4.96.52 2.63-1.37 4.1a29.7 29.7 0 0 0-5.05 5.33 10.63 10.63 0 0 0-1.63 3.1c.23-3.85.67-15.22.95-22.88.98.07 2.34-.11 3 .78zm-3.95 22.1c-.08 1.14-.13 1.62-.15 1.14-.02-.36.03-.74.15-1.14zm22.67 13.34c.37-1.3.83-2.55 1.37-3.53.52-.94 1.12-1.62 1.77-1.84 2.46-.82.9-1.83 2.74-2.73 1.83-.9 5.46.49 5.46 1.36 0 .88-11.48 7.25-11.34 6.74z"/><path id="tbjbe" d="M1314 1078.37h12.3c.08 0 12.3 12.31 12.3 12.3v21.86a4.1 4.1 0 0 1-4.1 4.1H1314a4.1 4.1 0 0 1-4.1-4.1v-30.06a4.1 4.1 0 0 1 4.1-4.1z"/><path id="tbjbf" d="M1326.3 1078.37v12.3h12.3"/><clipPath id="tbjbb"><use fill="#fff" xlink:href="#tbjba"/></clipPath></defs><g><g transform="translate(-1273 -1036)"><g><use fill="#fff" fill-opacity="0" stroke="#232323" stroke-miterlimit="50" stroke-width="4" clip-path="url(&quot;#tbjbb&quot;)" xlink:href="#tbjba"/></g><g><use fill="#fff" fill-opacity="0" stroke="#232323" stroke-miterlimit="50" stroke-width="2" xlink:href="#tbjbc"/></g><g><use fill="#fff" fill-opacity="0" stroke="#232323" stroke-linecap="round" stroke-linejoin="round" stroke-miterlimit="50" stroke-width="2" xlink:href="#tbjbd"/></g></g><g transform="translate(-1273 -1036)"><use fill="#fff" xlink:href="#tbjbe"/><use fill="#fff" fill-opacity="0" stroke="#e91e31" stroke-linecap="round" stroke-linejoin="round" stroke-miterlimit="50" stroke-width="2" xlink:href="#tbjbe"/></g><g transform="translate(-1273 -1036)"><use fill="#fff" xlink:href="#tbjbf"/><use fill="#fff" fill-opacity="0" stroke="#e91e31" stroke-linecap="round" stroke-linejoin="round" stroke-miterlimit="50" stroke-width="2" xlink:href="#tbjbf"/></g></g></svg>