<svg xmlns="http://www.w3.org/2000/svg" xmlns:xlink="http://www.w3.org/1999/xlink" width="80" height="80" viewBox="0 0 80 80"><defs><path id="t29qa" d="M904.63 1045.49l3 24.3-.02.14a4.03 4.03 0 0 1-1.13 3.4l-28.92 28.93-14.21 14.2a4.08 4.08 0 0 1-5.77-.02l-28-28a4.08 4.08 0 0 1-.02-5.76l14.28-14.28 28.85-28.85a4.03 4.03 0 0 1 3.4-1.14l.14-.01 24.3 3a4.12 4.12 0 0 1 4.1 4.09zm-16.16 11.1a4.1 4.1 0 1 0 5.8-5.8 4.1 4.1 0 0 0-5.8 5.8z"/><path id="t29qb" d="M861.43 1066.74a17.45 17.45 0 1 1 0 34.9 17.45 17.45 0 0 1 0-34.9z"/><path id="t29qc" d="M866.61 1091.76a9.02 9.02 0 0 1-5.37 1.78 9.26 9.26 0 0 1-9.18-9.35c0-5.17 4.11-9.35 9.18-9.35 2.04 0 3.93.68 5.46 1.83"/></defs><g><g transform="translate(-828 -1038)"><g><use fill="#fff" fill-opacity="0" stroke="#232323" stroke-linecap="round" stroke-linejoin="round" stroke-miterlimit="50" stroke-width="2" xlink:href="#t29qa"/></g><g><use fill="#fff" fill-opacity="0" stroke="#e91e31" stroke-linecap="round" stroke-linejoin="round" stroke-miterlimit="50" stroke-width="2" xlink:href="#t29qb"/></g><g><use fill="#fff" fill-opacity="0" stroke="#e91e31" stroke-linecap="round" stroke-linejoin="round" stroke-miterlimit="50" stroke-width="2" xlink:href="#t29qc"/></g></g></g></svg>