<svg xmlns="http://www.w3.org/2000/svg" xmlns:xlink="http://www.w3.org/1999/xlink" width="79" height="95" viewBox="0 0 79 95"><defs><path id="r0sva" d="M325.57 1440.05l-.95 2.82a.6.6 0 0 0 .91.68l2.42-1.72 2.39 1.78a.6.6 0 0 0 .92-.66l-.88-2.84 2.42-1.72c.47-.34.24-1.08-.34-1.09l-2.97-.03-.88-2.84a.6.6 0 0 0-1.14-.02l-.95 2.82-2.97-.03a.6.6 0 0 0-.36 1.07z"/><path id="r0svb" d="M343.27 1517.44v11.46h-30.29v-33h4.13v-33.02l5.51 5.5 5.5-22 5.51 22 5.51-5.5v19.17"/><path id="r0svc" d="M328.13 1506.9v2.75"/><path id="r0svd" d="M312.98 1495.9v-4.13"/><path id="r0sve" d="M312.98 1506.9h23.4"/><path id="r0svf" d="M317.11 1476.64h22.03"/><path id="r0svg" d="M322.62 1509.65v-11l5.5-4.13 5.51 4.12v11"/><path id="r0svh" d="M315.74 1495.9h2.75"/><path id="r0svi" d="M322.62 1527.53v-8.26l5.5-4.12 5.51 4.12v8.26"/><path id="r0svj" d="M328.13 1482.14a4.13 4.13 0 1 1 0 8.25 4.13 4.13 0 0 1 0-8.25z"/><path id="r0svl" d="M343.27 1528.9h35.8v-4.13"/><path id="r0svm" d="M306.1 1528.9h78.47"/><path id="r0svn" d="M352.85 1509.28a13.86 13.86 0 1 1 13.88-24.02 13.86 13.86 0 0 1-2.71 25.22"/><path id="r0svo" d="M359.8 1478.02a19.26 19.26 0 0 1 19.28 19.25 19.26 19.26 0 0 1-19.27 19.24 19.26 19.26 0 0 1-19.28-19.24 19.26 19.26 0 0 1 19.28-19.25z"/><path id="r0svp" d="M374.11 1511.57l7.27 7.26"/><clipPath id="r0svk"><use fill="#fff" xlink:href="#r0sva"/></clipPath></defs><g><g transform="translate(-306 -1434)"><use fill="#fff" fill-opacity="0" stroke="#232323" stroke-linecap="round" stroke-linejoin="round" stroke-miterlimit="50" stroke-width="2" xlink:href="#r0svb"/></g><g transform="translate(-306 -1434)"><use fill="#fff" fill-opacity="0" stroke="#232323" stroke-linecap="round" stroke-linejoin="round" stroke-miterlimit="50" stroke-width="2" xlink:href="#r0svc"/></g><g transform="translate(-306 -1434)"><use fill="#fff" fill-opacity="0" stroke="#232323" stroke-linecap="round" stroke-linejoin="round" stroke-miterlimit="50" stroke-width="2" xlink:href="#r0svd"/></g><g transform="translate(-306 -1434)"><use fill="#fff" fill-opacity="0" stroke="#232323" stroke-linecap="round" stroke-linejoin="round" stroke-miterlimit="50" stroke-width="2" xlink:href="#r0sve"/></g><g transform="translate(-306 -1434)"><use fill="#fff" fill-opacity="0" stroke="#232323" stroke-linecap="round" stroke-linejoin="round" stroke-miterlimit="50" stroke-width="2" xlink:href="#r0svf"/></g><g transform="translate(-306 -1434)"><use fill="#fff" fill-opacity="0" stroke="#232323" stroke-linecap="round" stroke-linejoin="round" stroke-miterlimit="50" stroke-width="2" xlink:href="#r0svg"/></g><g transform="translate(-306 -1434)"><use fill="#fff" fill-opacity="0" stroke="#232323" stroke-linecap="round" stroke-linejoin="round" stroke-miterlimit="50" stroke-width="2" xlink:href="#r0svh"/></g><g transform="translate(-306 -1434)"><use fill="#fff" fill-opacity="0" stroke="#232323" stroke-linecap="round" stroke-linejoin="round" stroke-miterlimit="50" stroke-width="2" xlink:href="#r0svi"/></g><g transform="translate(-306 -1434)"><use fill="#fff" fill-opacity="0" stroke="#232323" stroke-linecap="round" stroke-linejoin="round" stroke-miterlimit="50" stroke-width="2" xlink:href="#r0svj"/></g><g transform="translate(-306 -1434)"><use fill="#fff" fill-opacity="0" stroke="#232323" stroke-linecap="round" stroke-linejoin="round" stroke-miterlimit="50" stroke-width="4" clip-path="url(&quot;#r0svk&quot;)" xlink:href="#r0sva"/></g><g transform="translate(-306 -1434)"><g><use fill="#fff" fill-opacity="0" stroke="#232323" stroke-linecap="round" stroke-linejoin="round" stroke-miterlimit="50" stroke-width="2" xlink:href="#r0svl"/></g><g><use fill="#fff" fill-opacity="0" stroke="#232323" stroke-linecap="round" stroke-linejoin="round" stroke-miterlimit="50" stroke-width="2" xlink:href="#r0svm"/></g></g><g transform="translate(-306 -1434)"><use fill="#fff" fill-opacity="0" stroke="#e91e31" stroke-linecap="round" stroke-linejoin="round" stroke-miterlimit="50" stroke-width="2" xlink:href="#r0svn"/></g><g transform="translate(-306 -1434)"><use fill="#fff" fill-opacity="0" stroke="#e91e31" stroke-linecap="round" stroke-linejoin="round" stroke-miterlimit="50" stroke-width="2" xlink:href="#r0svo"/></g><g transform="translate(-306 -1434)"><use fill="#fff" fill-opacity="0" stroke="#e91e31" stroke-linecap="round" stroke-linejoin="round" stroke-miterlimit="50" stroke-width="2" xlink:href="#r0svp"/></g></g></svg>