<svg xmlns="http://www.w3.org/2000/svg" xmlns:xlink="http://www.w3.org/1999/xlink" width="145" height="146" viewBox="0 0 145 146"><defs><path id="kc6xa" d="M1129 1124.07a9.94 9.94 0 0 1-9.95 9.94H996.94a9.94 9.94 0 0 1-9.94-9.94v-122.12a9.94 9.94 0 0 1 9.94-9.94h122.11a9.94 9.94 0 0 1 9.94 9.94z"/><path id="kc6xb" d="M1077.88 1053.07a11.36 11.36 0 1 1-22.72 0 11.36 11.36 0 0 1 22.72 0z"/><path id="kc6xf" d="M987 1135v-9.89a9.94 9.94 0 0 0 9.58 9.89zm0-144h142v144h-9.58a9.94 9.94 0 0 0 9.57-9.93v-122.12a9.94 9.94 0 0 0-9.94-9.94H996.94a9.94 9.94 0 0 0-9.94 9.9zm0 11.95V1125.11v-122.2.04zm9.94 132.06h122.11l.37-.01H996.58h.36z"/><path id="kc6xi" d="M1029.61 991.97v142h-4.26v-142h4.26m62.45 0v142h-4.26v-142h4.26"/><path id="kc6xj" d="M1066.55 1063.17l-35.67 35.67a4.25 4.25 0 0 1-6.02 0l-12.66-12.65-25.2 25.2v12.69a9.94 9.94 0 0 0 9.94 9.94h122.11a9.94 9.94 0 0 0 9.94-9.94v-58.1h-11.42l-21.1 21.1c-.8.8-1.9 1.2-3 1.2-1.11 0-2.22-.4-3.02-1.2l-23.9-23.9"/><path id="kc6xk" d="M1129 1051.6h-13.2c-1.12 0-2.2.45-3 1.25l-19.34 19.33-23.9-23.9a4.26 4.26 0 0 0-6.02 0l-35.67 35.66-12.66-12.65a4.26 4.26 0 0 0-6.02 0L987 1093.48v12.05l25.2-25.2 12.66 12.65a4.26 4.26 0 0 0 6.02 0l35.67-35.67 23.9 23.9a4.38 4.38 0 0 0 6.03 0l21.1-21.09h11.41z"/><path id="kc6xn" d="M1087.82 1003.36h-42.6v28.4h15.58l5.72 5.72 5.72-5.72h15.58z"/><path id="kc6xo" d="M1067.3 1012.28v1.77l-4.96 10.23h-2.97l4.95-9.65v-.04h-5.5v-2.3zm5.68 12v-2.86h-5.32v-1.83l4.52-7.3h3.45v7.03h1.42v2.1h-1.42v2.86zm0-4.96v-2.66c0-.72.03-1.46.07-2.24h-.06c-.38.78-.72 1.48-1.12 2.24l-1.59 2.62-.02.04z"/><mask id="kc6xd" width="2" height="2" x="-1" y="-1"><path fill="#fff" d="M987 992h142v142H987z"/><use xlink:href="#kc6xa"/></mask><filter id="kc6xc" width="162" height="164" x="977" y="982" filterUnits="userSpaceOnUse"><feOffset dy="2" in="SourceGraphic" result="FeOffset1043Out"/><feGaussianBlur in="FeOffset1043Out" result="FeGaussianBlur1044Out" stdDeviation="0 0"/></filter><linearGradient id="kc6xe" x1="1041.99" x2="1074" y1="1134.01" y2="992.01" gradientUnits="userSpaceOnUse"><stop offset="0" stop-opacity=".1"/><stop offset="1" stop-opacity="0"/></linearGradient><filter id="kc6xg" width="200%" height="200%" x="-50%" y="-50%"><feGaussianBlur in="SourceGraphic" result="FeGaussianBlur1065Out" stdDeviation="0 0"/></filter><mask id="kc6xh"><use fill="#fff" xlink:href="#kc6xa"/></mask><mask id="kc6xm" width="2" height="2" x="-1" y="-1"><path fill="#fff" d="M1055 1041h23v24h-23z"/><use xlink:href="#kc6xb"/></mask><filter id="kc6xl" width="45.8" height="46.8" x="1042.2" y="1031" filterUnits="userSpaceOnUse"><feOffset dx="-2.8" dy="2.8" in="SourceGraphic" result="FeOffset1095Out"/><feGaussianBlur in="FeOffset1095Out" result="FeGaussianBlur1096Out" stdDeviation="0 0"/></filter></defs><g><g transform="translate(-985 -990)"><g><g filter="url(#kc6xc)"><use fill="none" stroke-opacity=".25" stroke-width="0" mask="url(&quot;#kc6xd&quot;)" xlink:href="#kc6xa"/><use fill-opacity=".25" xlink:href="#kc6xa"/></g><use fill="#9e99c4" xlink:href="#kc6xa"/><use fill="url(#kc6xe)" xlink:href="#kc6xa"/><use fill="#fff" fill-opacity=".25" stroke="#fff" stroke-opacity=".25" stroke-width="0" filter="url(#kc6xg)" mask="url(&quot;#kc6xh&quot;)" xlink:href="#kc6xf"/></g><g><use xlink:href="#kc6xi"/></g><g><use fill="#fff" xlink:href="#kc6xj"/></g><g><use fill="#fff" xlink:href="#kc6xk"/></g><g><g filter="url(#kc6xl)"><use fill="none" stroke-opacity=".2" stroke-width="0" mask="url(&quot;#kc6xm&quot;)" xlink:href="#kc6xb"/><use fill-opacity=".2" xlink:href="#kc6xb"/></g><use fill="#aeecfc" xlink:href="#kc6xb"/></g><g><use fill="#37353a" xlink:href="#kc6xn"/></g><g><use fill="#fff" xlink:href="#kc6xo"/></g></g></g></svg>