<svg width="32" height="32" fill="none" xmlns="http://www.w3.org/2000/svg"><path d="M20.769 8.514H11.23a2.764 2.764 0 0 0-2.76 2.76v9.538a2.764 2.764 0 0 0 2.76 2.761h9.538a2.764 2.764 0 0 0 2.761-2.761v-9.538a2.764 2.764 0 0 0-2.761-2.76zM16 21a4.963 4.963 0 0 1-4.957-4.958A4.963 4.963 0 0 1 16 11.086a4.963 4.963 0 0 1 4.958 4.957A4.964 4.964 0 0 1 16 21.001zm5.117-8.89a1.174 1.174 0 0 1-1.173-1.173 1.174 1.174 0 0 1 2.346 0c0 .647-.526 1.173-1.173 1.173z" fill="#016F86"/><path d="M16 13.18a2.866 2.866 0 0 0-2.863 2.863A2.867 2.867 0 0 0 16 18.906a2.866 2.866 0 0 0 2.863-2.863A2.866 2.866 0 0 0 16 13.18z" fill="#016F86"/><path d="M16 0C7.164 0 0 7.164 0 16s7.164 16 16 16 16-7.164 16-16S24.836 0 16 0zm9.625 20.812a4.86 4.86 0 0 1-4.856 4.856H11.23a4.861 4.861 0 0 1-4.855-4.856v-9.538A4.861 4.861 0 0 1 11.23 6.42h9.538a4.861 4.861 0 0 1 4.856 4.855v9.538z" fill="#016F86"/></svg>