<svg width="32" height="32" fill="none" xmlns="http://www.w3.org/2000/svg"><path d="M16 32c8.837 0 16-7.163 16-16S24.837 0 16 0 0 7.163 0 16s7.163 16 16 16z" fill="#3C80AD"/><path d="M10.77 8.234c-4.038.026-7.307 3.318-7.307 7.37 0 4.067 3.294 7.368 7.353 7.368a7.315 7.315 0 0 0 4.948-1.92c.269-.244.518-.508.748-.79h-1.507a7.124 7.124 0 0 1-.548-.759h2.598c.158-.253.3-.516.428-.788h-3.455a7.191 7.191 0 0 1-.307-.774h4.07a7.433 7.433 0 0 0 .21-3.916h-4.496c.056-.262.126-.52.21-.774h4.072a7.413 7.413 0 0 0-.318-.789h-3.441a7.13 7.13 0 0 1 .422-.774h2.596a7.334 7.334 0 0 0-.57-.788h-1.448a6.74 6.74 0 0 1 .737-.744 7.313 7.313 0 0 0-4.948-1.921h-.048z" fill="#931B1D"/><path d="M28.033 15.606c0 4.07-3.29 7.369-7.352 7.37-4.06.001-7.353-3.297-7.354-7.367v-.003c-.002-4.07 3.29-7.37 7.351-7.372 4.061-.001 7.354 3.298 7.355 7.368v.004z" fill="#F16622"/><path d="M28.033 15.687c0 4.07-3.29 7.37-7.352 7.37-4.06.002-7.353-3.297-7.354-7.366v-.004c-.002-4.07 3.29-7.37 7.351-7.371 4.061-.002 7.354 3.297 7.355 7.367v.004z" fill="#F7981D"/><path d="M10.77 8.318c-4.038.026-7.307 3.317-7.307 7.37 0 4.067 3.294 7.368 7.353 7.368a7.315 7.315 0 0 0 4.948-1.92 7.35 7.35 0 0 0 .748-.79h-1.507a7.062 7.062 0 0 1-.548-.758h2.598c.158-.254.3-.517.428-.79h-3.455a7.254 7.254 0 0 1-.307-.773h4.07a7.432 7.432 0 0 0 .21-3.916h-4.496c.056-.262.126-.52.21-.774h4.072a7.413 7.413 0 0 0-.318-.79h-3.441c.124-.264.265-.523.422-.773h2.596a7.472 7.472 0 0 0-.57-.79h-1.448a6.82 6.82 0 0 1 .737-.743 7.314 7.314 0 0 0-4.948-1.921h-.048z" fill="#CB2026"/><path d="M13.46 17.564l.099-.667c-.054 0-.132.023-.202.023-.272 0-.303-.146-.285-.253l.22-1.36h.414l.1-.739h-.39l.08-.458h-.784c-.017.017-.462 2.58-.462 2.892 0 .462.258.668.624.665.285-.003.508-.082.586-.104zm.249-1.272c0 1.109.73 1.373 1.352 1.373.575 0 .827-.13.827-.13l.138-.756s-.437.194-.831.194c-.84 0-.694-.629-.694-.629h1.592s.102-.509.102-.716c0-.517-.257-1.147-1.116-1.147-.788 0-1.37.85-1.37 1.811zm1.373-1.108c.442 0 .36.497.36.538h-.87c0-.052.083-.538.51-.538zm4.958 2.38l.14-.857s-.385.194-.648.194c-.555 0-.778-.426-.778-.881 0-.927.478-1.437 1.01-1.437.399 0 .719.225.719.225l.127-.83s-.474-.194-.88-.194c-.905 0-1.785.785-1.785 2.262 0 .978.476 1.625 1.41 1.625.264 0 .684-.107.684-.107zM9.155 14.493c-.537 0-.949.173-.949.173l-.113.676s.34-.138.853-.138c.291 0 .504.032.504.27 0 .144-.026.197-.026.197s-.23-.019-.336-.019c-.677 0-1.388.29-1.388 1.163 0 .688.466.846.756.846.552 0 .79-.359.803-.36l-.026.3h.69l.307-2.162c0-.916-.798-.946-1.075-.946zm.168 1.759c.014.132-.083.751-.555.751-.243 0-.306-.186-.306-.297 0-.214.116-.472.69-.472.133 0 .148.015.17.018zm1.64 1.392c.176 0 1.184.046 1.184-.997 0-.974-.933-.782-.933-1.174 0-.194.152-.256.43-.256.11 0 .535.035.535.035l.099-.693s-.275-.061-.722-.061c-.58 0-1.167.231-1.167 1.024 0 .9.98.808.98 1.187 0 .252-.274.273-.485.273-.365 0-.694-.126-.696-.12l-.104.686c.018.006.222.096.879.096zm15.561-3.772l-.168 1.05s-.295-.408-.756-.408c-.718 0-1.316.867-1.316 1.863 0 .643.319 1.272.971 1.272.47 0 .729-.327.729-.327l-.034.28h.761l.599-3.732-.786.002zm-.363 2.048c0 .414-.205.967-.63.967-.281 0-.413-.237-.413-.609 0-.608.273-1.01.616-1.01.282 0 .427.195.427.652zM4.915 17.604l.477-2.816.07 2.816h.54l1.005-2.816-.445 2.816h.8l.619-3.735H6.74l-.772 2.292-.04-2.292H4.787l-.626 3.735h.754zm12.063.006c.228-1.298.27-2.353.814-2.16.096-.503.187-.697.29-.91 0 0-.048-.01-.15-.01-.35 0-.61.48-.61.48l.069-.441h-.73l-.487 3.04h.804zm4.868-3.117c-.537 0-.948.173-.948.173l-.114.676s.34-.138.853-.138c.291 0 .505.032.505.27 0 .144-.026.197-.026.197s-.23-.019-.337-.019c-.677 0-1.388.29-1.388 1.163 0 .688.467.846.756.846.552 0 .79-.359.803-.36l-.026.3h.69l.307-2.162c0-.916-.797-.946-1.075-.946zm.168 1.759c.015.132-.082.751-.555.751-.242 0-.305-.186-.305-.297 0-.214.116-.472.69-.472.133 0 .147.015.17.018zm1.536 1.358c.229-1.298.271-2.353.815-2.16.095-.503.187-.697.291-.91 0 0-.05-.01-.151-.01-.351 0-.61.48-.61.48l.07-.441h-.73l-.488 3.04h.804z" fill="#fff"/></svg>