<svg width="24" height="30" fill="none" xmlns="http://www.w3.org/2000/svg"><path d="M21.007 21.445l-4.777-2.389a1.315 1.315 0 0 1-.73-1.182v-1.69c.114-.14.235-.3.36-.476a11.443 11.443 0 0 0 1.477-2.9A1.984 1.984 0 0 0 18.5 11V9c0-.482-.18-.948-.5-1.313V5.029c.028-.275.138-1.912-1.046-3.262C15.927.594 14.26 0 12 0S8.073.594 7.046 1.765C5.862 3.115 5.972 4.753 6 5.028v2.66c-.32.364-.5.83-.5 1.312v2c0 .608.277 1.176.748 1.555.458 1.813 1.417 3.18 1.752 3.618v1.655c0 .483-.264.928-.689 1.16l-4.46 2.433A4.509 4.509 0 0 0 .5 25.38V27c0 2.373 7.523 3 11.5 3 3.977 0 11.5-.627 11.5-3v-1.521a4.486 4.486 0 0 0-2.493-4.034zM22.5 27c0 .678-3.706 2-10.5 2-6.794 0-10.5-1.322-10.5-2v-1.619c0-1.285.701-2.467 1.83-3.082l4.46-2.433A2.322 2.322 0 0 0 9 17.828v-2.01l-.117-.139c-.011-.014-1.237-1.497-1.704-3.533l-.046-.198-.17-.11A.998.998 0 0 1 6.5 11V9a.99.99 0 0 1 .335-.738L7 8.114V5l-.005-.066c-.001-.013-.171-1.399.803-2.51C8.627 1.479 10.04 1 12 1c1.953 0 3.364.476 4.193 1.414.973 1.1.813 2.509.811 2.52L17 8.114l.165.149A.985.985 0 0 1 17.5 9v2a.994.994 0 0 1-.711.95l-.249.076-.08.248a10.467 10.467 0 0 1-1.417 2.856c-.148.21-.293.397-.418.54l-.125.142v2.062c0 .885.492 1.68 1.283 2.077l4.777 2.387a3.491 3.491 0 0 1 1.94 3.14V27z" fill="#000"/></svg>