<svg width="32" height="32" fill="none" xmlns="http://www.w3.org/2000/svg"><path d="M16 32c8.837 0 16-7.163 16-16S24.837 0 16 0 0 7.163 0 16s7.163 16 16 16z" fill="#DADADA"/><path d="M23.454 13.31c-.666 0-1.193.177-1.595.258l-.124 1.012c.201-.097.836-.273 1.363-.29.526-.016.836.097.728.547-1.564 0-2.618.32-2.834 1.333-.31 1.735 1.595 1.687 2.354.931l-.093.418h1.393l.604-2.763c.247-1.172-.82-1.461-1.796-1.445zm.093 2.828c-.078.369-.372.53-.728.546-.31.016-.588-.258-.387-.579.155-.273.589-.337.852-.337h.34c-.031.129-.047.241-.077.37zm2.895-3.92L25.29 17.52h1.416l1.167-5.3h-1.43zm-6.504.016h-2.592l-1.148 5.285h1.505l.388-1.75h1.071c1.056 0 1.925-.643 2.157-1.736.264-1.236-.636-1.799-1.38-1.799zm-.046 1.8c-.093.4-.497.722-.885.722h-.698l.31-1.446h.745c.388 0 .62.322.528.723z" fill="#1A80AD"/><path d="M9.88 13.311c-.657 0-1.177.177-1.56.257l-.122 1.012c.184-.097.81-.273 1.331-.29.52-.015.826.097.734.547-1.545 0-2.585.32-2.8 1.333-.305 1.735 1.576 1.687 2.31.932l-.09.417h1.391l.597-2.763c.244-1.172-.827-1.46-1.79-1.445zm.108 2.827c-.077.37-.383.53-.734.547-.306.016-.566-.258-.367-.58.152-.272.58-.336.825-.336h.353c-.032.128-.062.24-.077.37zm2.289-2.751h1.392l.224 2.461 1.362-2.46h1.437l-3.308 5.889h-1.556l1.017-1.731-.568-4.159zm-5.858-1.152h-2.6L2.67 17.52h1.524l.374-1.751h1.089c1.042 0 1.914-.643 2.147-1.735.265-1.237-.622-1.8-1.384-1.8zm-.047 1.799c-.093.401-.482.722-.872.722h-.715l.327-1.445h.747c.373 0 .622.321.513.723zm21.806-1.13v-.625h-.233v-.084h.562v.084h-.235v.625h-.094zm.422 0v-.71h.14l.168.503.034.104a8.5 8.5 0 0 1 .037-.113l.17-.493h.127v.709h-.09v-.594l-.207.594h-.084l-.206-.604v.604h-.09z" fill="#1A5B80"/></svg>