<svg width="30" height="30" fill="none" xmlns="http://www.w3.org/2000/svg"><path fill-rule="evenodd" clip-rule="evenodd" d="M23.14 19.094l6.073 4.05a1.763 1.763 0 0 1 .534 2.377l-1.526 2.538a3.579 3.579 0 0 1-2.12 1.633 8.857 8.857 0 0 1-2.35.307c-3.447 0-8.463-1.812-15.2-8.549C.08 12.98-.608 7.23.306 3.898a3.59 3.59 0 0 1 1.633-2.12L4.48.253a1.763 1.763 0 0 1 2.376.535l4.05 6.072c.509.771.34 1.804-.386 2.373l-2.273 1.769a.757.757 0 0 0-.2.973l.184.336c.608 1.113 1.367 2.502 4.163 5.3 2.796 2.796 4.184 3.553 5.299 4.161l.336.186a.756.756 0 0 0 .97-.204l1.768-2.275a1.772 1.772 0 0 1 2.374-.385zm4.223 8.453l1.523-2.539a.764.764 0 0 0-.232-1.031l-6.072-4.05a.77.77 0 0 0-1.03.167l-1.768 2.273a1.75 1.75 0 0 1-2.245.464l-.329-.181h-.001c-1.171-.64-2.628-1.434-5.527-4.333-2.9-2.899-3.694-4.356-4.333-5.528v-.001l-.181-.328a1.75 1.75 0 0 1 .463-2.246l2.273-1.768a.77.77 0 0 0 .167-1.03L8.225 4.647l-2.2-3.302a.765.765 0 0 0-1.031-.232l-2.54 1.523a2.59 2.59 0 0 0-1.183 1.527c-.844 3.076-.145 8.448 7.987 16.58 8.131 8.131 13.504 8.83 16.58 7.986a2.583 2.583 0 0 0 1.524-1.182zm-1.865-14.046a8.508 8.508 0 0 0-8.499-8.498.5.5 0 1 1 0-1 9.51 9.51 0 0 1 9.499 9.498.5.5 0 1 1-1 0zm-8.499-5.499a5.506 5.506 0 0 1 5.5 5.5.5.5 0 1 0 1 0 6.506 6.506 0 0 0-6.5-6.5.5.5 0 1 0 0 1zm2.5 5.5a2.503 2.503 0 0 0-2.5-2.5.5.5 0 1 1 0-1 3.504 3.504 0 0 1 3.5 3.5.5.5 0 1 1-1 0z" fill="#000"/></svg>