<svg width="30" height="30" fill="none" xmlns="http://www.w3.org/2000/svg"><path d="M5.71 16.649C7.212 18.15 9.035 18.9 11.18 18.9c2.144 0 3.968-.75 5.469-2.252 1.501-1.502 2.252-3.325 2.252-5.47 0-2.144-.75-3.967-2.252-5.469-1.502-1.5-3.325-2.252-5.47-2.252-2.144 0-3.967.751-5.469 2.252-1.5 1.502-2.252 3.325-2.252 5.47 0 2.144.751 3.968 2.252 5.469zM21.474 18.9L30 27.426 27.426 30l-8.525-8.526v-1.367l-.483-.482c-2.037 1.77-4.45 2.654-7.238 2.654-3.11 0-5.764-1.073-7.963-3.217C1.072 16.917 0 14.289 0 11.18c0-3.11 1.072-5.738 3.217-7.882C5.416 1.099 8.07 0 11.18 0c3.11 0 5.737 1.1 7.882 3.298 2.144 2.144 3.217 4.772 3.217 7.882 0 2.788-.885 5.2-2.654 7.238l.482.483h1.367z" fill="#fff"/></svg>