<svg width="32" height="32" fill="none" xmlns="http://www.w3.org/2000/svg"><path d="M1.689 3.378a1.688 1.688 0 1 0 0-3.376 1.688 1.688 0 0 0 0 3.376z" fill="#F3F2F2"/><path d="M11.848 19.07l1.224-7.23h1.982l-1.224 7.23h-1.982zm9.038-7.043a5.148 5.148 0 0 0-1.776-.303c-1.96 0-3.34.98-3.351 2.386-.011 1.039.985 1.618 1.737 1.964.772.353 1.031.58 1.027.896-.004.485-.616.707-1.186.707-.793 0-1.215-.11-1.866-.38l-.255-.115-.279 1.618c.463.202 1.32.377 2.209.386 2.083 0 3.436-.969 3.451-2.47.008-.822-.52-1.448-1.664-1.964-.693-.334-1.117-.557-1.113-.896 0-.3.36-.622 1.136-.622.648-.01 1.117.13 1.484.277l.177.084.27-1.568zm3.38-.187c-.475 0-.818.146-1.027.617l-2.938 6.613H22.4l.408-1.108h2.507l.233 1.108h1.866l-1.632-7.229h-1.516zm-.901 4.676c.164-.416.79-2.02.79-2.02-.012.018.162-.419.262-.69l.134.623.46 2.087h-1.646zm-15.132.28l-.174-.99c-.362-1.156-1.485-2.406-2.743-3.032l1.751 6.296h2.1l3.148-7.23h-2.1l-1.982 4.956z" fill="#293688"/><path d="M3.161 11.84v.117c2.487.598 4.214 2.11 4.898 3.848l-.719-3.348c-.12-.457-.484-.6-.914-.617H3.161zM15.999 32c6.175 0 11.53-3.501 14.197-8.624H1.802C4.47 28.499 9.824 31.999 16 31.999z" fill="#F7981D"/><path d="M15.999 0C9.922 0 4.636 3.388 1.927 8.379h28.144C27.362 3.389 22.076 0 15.999 0z" fill="#293688"/></svg>