<svg width="32" height="32" fill="none" xmlns="http://www.w3.org/2000/svg"><path d="M16 32c8.837 0 16-7.163 16-16S24.837 0 16 0 0 7.163 0 16s7.163 16 16 16z" fill="#016F86"/><path fill-rule="evenodd" clip-rule="evenodd" d="M15.396 23.017h1.255s.38-.041.573-.25c.179-.192.173-.552.173-.552s-.024-1.685.758-1.933c.77-.244 1.76 1.629 2.81 2.349.793.545 1.396.425 1.396.425l2.806-.039s1.468-.09.772-1.244c-.057-.095-.406-.854-2.086-2.414-1.76-1.633-1.524-1.369.595-4.193 1.29-1.72 1.807-2.77 1.646-3.22-.154-.429-1.103-.315-1.103-.315l-3.16.02s-.234-.033-.407.071c-.17.102-.28.34-.28.34s-.5 1.33-1.166 2.462c-1.407 2.39-1.97 2.515-2.199 2.367-.535-.346-.401-1.389-.401-2.13 0-2.315.35-3.28-.684-3.53-.343-.083-.596-.137-1.474-.146-1.127-.012-2.082.003-2.622.268-.36.176-.636.568-.467.59.208.029.681.128.932.47.324.44.312 1.429.312 1.429s.186 2.725-.434 3.063c-.426.233-1.01-.241-2.264-2.409-.643-1.11-1.128-2.337-1.128-2.337s-.093-.229-.26-.352c-.203-.148-.486-.196-.486-.196l-3.002.02s-.45.013-.616.209c-.147.174-.011.534-.011.534s2.35 5.499 5.01 8.27c2.44 2.54 5.212 2.373 5.212 2.373z" fill="#fff"/></svg>