<svg xmlns="http://www.w3.org/2000/svg" xmlns:xlink="http://www.w3.org/1999/xlink" width="57" height="43" viewBox="0 0 57 43"><defs><path id="77fja" d="M366 51.5c0-11.87 9.07-21.5 20.25-21.5 11.2 0 20.26 9.63 20.26 21.5S397.44 73 386.26 73C375.06 73 366 63.37 366 51.5z"/><path id="77fjc" d="M381.79 56l-.03-4.47-2.13 3.59h-1.45l-2.13-3.43V56h-3.01v-9.8h2.71l3.2 5.22 3.1-5.22h2.72l.03 9.8zm-14.53-4.09l-.95-2.46-.95 2.46zm.9 2.38h-3.72L363.8 56h-3.36l4.28-9.8h3.24l4.28 9.8h-3.4zm-12.35-.6c.33 0 .58-.07.77-.21a.71.71 0 0 0 .27-.6c0-.5-.35-.76-1.04-.76h-1.7v1.57zm-4.94-7.49h8.5v2.5h-5.25v1.13h2.34c1.2 0 2.1.25 2.75.76.64.5.96 1.24.96 2.2 0 1-.37 1.79-1.1 2.36-.72.57-1.74.85-3.03.85h-5.17z"/><path id="77fjd" d="M383.79 57l-.03-4.47-2.13 3.59h-1.45l-2.13-3.43V57h-3.01v-9.8h2.71l3.2 5.22 3.1-5.22h2.72l.03 9.8zm-14.53-4.09l-.95-2.46-.95 2.46zm.9 2.38h-3.72L365.8 57h-3.36l4.28-9.8h3.24l4.28 9.8h-3.4zm-12.35-.6c.33 0 .58-.07.77-.21a.71.71 0 0 0 .27-.6c0-.5-.35-.76-1.04-.76h-1.7v1.57zm-4.94-7.49h8.5v2.5h-5.25v1.13h2.34c1.2 0 2.1.25 2.75.76.64.5.96 1.24.96 2.2 0 1-.37 1.79-1.1 2.36-.72.57-1.74.85-3.03.85h-5.17z"/><linearGradient id="77fjb" x1="407.39" x2="373.88" y1="60.49" y2="41.63" gradientUnits="userSpaceOnUse"><stop offset="0" stop-color="#00ffc4"/><stop offset="1" stop-color="#00d3cb"/></linearGradient></defs><g><g transform="translate(-350 -30)"><use fill="url(#77fjb)" xlink:href="#77fja"/></g><g transform="translate(-350 -30)"><use fill="#fff" xlink:href="#77fjc"/><use fill="#fff" fill-opacity="0" stroke="#000" stroke-miterlimit="50" xlink:href="#77fjc"/></g><g transform="translate(-350 -30)"><use fill="#fff" xlink:href="#77fjd"/><use fill="#fff" fill-opacity="0" stroke="#000" stroke-miterlimit="50" xlink:href="#77fjd"/></g></g></svg>