<svg xmlns="http://www.w3.org/2000/svg" xmlns:xlink="http://www.w3.org/1999/xlink" width="1548" height="416"><defs><path id="a" d="M1715.55 193.96v390.36H1888v-99.57h-73.6v-290.8zm-177.56 249.57c2.46-34.3 8.61-88.49 18.45-162.54 4.92 64.48 9.84 118.66 14.76 162.54zm-58.22-249.57l-50.36 390.36h102.6l5.88-70.16h35.53l4.94 70.16h101.42l-56.7-390.36zm-263.69 0v78.12h58.43v312.24h98.8V272.08h58.67v-78.12zm-140.51 0v390.36h98.36V193.96zm-56.2 126.14c0-32-2.9-56.41-8.7-73.22-5.8-16.8-18.27-31.32-37.39-43.54C954.16 191.1 930.1 185 901.1 185c-29.46 0-53.48 7.04-72.06 21.11-18.57 14.07-29.82 29.55-33.73 46.44-3.92 16.89-5.88 44-5.88 81.3V449.9c0 26.86.94 47 2.82 60.43s6.58 26.26 14.1 38.49c7.53 12.22 18.54 22.47 33.04 30.76A92.54 92.54 0 0 0 886.06 592c13.95 0 26.05-3.02 36.32-9.05 10.27-6.03 18.77-15.08 25.51-27.14l9.17 27.99h62.3V374.15h-115.9v59.34h19.98v46.33c0 18.17-1.3 30.4-3.88 36.67-2.59 6.27-7.48 9.4-14.7 9.4-6.58 0-10.97-2.77-13.16-8.32-2.2-5.55-3.3-17.09-3.3-34.62V295.5c0-19.95 1.1-32.33 3.3-37.16 2.2-4.82 6.35-7.24 12.46-7.24 7.05 0 11.52 2.82 13.4 8.45 1.88 5.63 2.82 19.62 2.82 41.98v35.46h98.98zm-384.5-126.14v390.36h98.35V193.96zm-163.94 70.06c4 2.33 6.56 6 7.68 10.99 1.13 4.99 1.69 16.34 1.69 34.06V461c0 26.09-1.69 42.07-5.05 47.95-3.36 5.88-12.32 8.82-26.89 8.82V260.5c11.05 0 18.57 1.17 22.57 3.5zM350 584.32h125.23c23.74 0 41.5-1.33 53.3-3.98 11.78-2.65 21.69-7.31 29.7-13.98 8.03-6.67 13.65-15.92 16.87-27.73 3.22-11.81 4.83-35.24 4.83-70.28V331.63c0-36.97-1.1-61.76-3.3-74.38-2.2-12.62-7.7-24.07-16.5-34.36-8.81-10.28-21.66-17.68-38.56-22.18-16.9-4.5-49.33-6.75-97.28-6.75H350z"/><path id="b" d="M1723.55 186.96v390.36H1896v-99.57h-73.6v-290.8zm-177.56 249.57c2.46-34.3 8.61-88.49 18.45-162.54 4.92 64.48 9.84 118.66 14.76 162.54zm-58.22-249.57l-50.36 390.36h102.6l5.88-70.16h35.53l4.94 70.16h101.42l-56.7-390.36zm-263.69 0v78.12h58.43v312.24h98.8V265.08h58.67v-78.12zm-140.51 0v390.36h98.36V186.96zm-56.2 126.14c0-32-2.9-56.41-8.7-73.22-5.8-16.8-18.27-31.32-37.39-43.54C962.16 184.1 938.1 178 909.1 178c-29.46 0-53.48 7.04-72.06 21.11-18.57 14.07-29.82 29.55-33.73 46.44-3.92 16.89-5.88 44-5.88 81.3V442.9c0 26.86.94 47 2.82 60.43s6.58 26.26 14.1 38.49c7.53 12.22 18.54 22.47 33.04 30.76A92.54 92.54 0 0 0 894.06 585c13.95 0 26.05-3.02 36.32-9.05 10.27-6.03 18.77-15.08 25.51-27.14l9.17 27.99h62.3V367.15h-115.9v59.34h19.98v46.33c0 18.17-1.3 30.4-3.88 36.67-2.59 6.27-7.48 9.4-14.7 9.4-6.58 0-10.97-2.77-13.16-8.32-2.2-5.55-3.3-17.09-3.3-34.62V288.5c0-19.95 1.1-32.33 3.3-37.16 2.2-4.82 6.35-7.24 12.46-7.24 7.05 0 11.52 2.82 13.4 8.45 1.88 5.63 2.82 19.62 2.82 41.98v35.46h98.98zm-384.5-126.14v390.36h98.35V186.96zm-163.94 70.06c4 2.33 6.56 6 7.68 10.99 1.13 4.99 1.69 16.34 1.69 34.06V454c0 26.09-1.69 42.07-5.05 47.95-3.36 5.88-12.32 8.82-26.89 8.82V253.5c11.05 0 18.57 1.17 22.57 3.5zM358 577.32h125.23c23.74 0 41.5-1.33 53.3-3.98 11.78-2.65 21.69-7.31 29.7-13.98 8.03-6.67 13.65-15.92 16.87-27.73 3.22-11.81 4.83-35.24 4.83-70.28V324.63c0-36.97-1.1-61.76-3.3-74.38-2.2-12.62-7.7-24.07-16.5-34.36-8.81-10.28-21.66-17.68-38.56-22.18-16.9-4.5-49.33-6.75-97.28-6.75H358z"/></defs><g transform="translate(-349 -177)"><use fill="#f3f3f3" xlink:href="#a"/><use fill="#fff" fill-opacity="0" stroke="#414141" stroke-miterlimit="50" stroke-width="2" xlink:href="#a"/></g><g fill="#fff" transform="translate(-349 -177)"><use xlink:href="#b"/><use fill-opacity="0" stroke="#414141" stroke-miterlimit="50" stroke-width="2" xlink:href="#b"/></g></svg>