<svg width="78" height="112" viewBox="0 0 78 112" fill="none" xmlns="http://www.w3.org/2000/svg">
<path d="M15.3999 41.8L39.4999 0L63.5999 41.8H15.3999Z" fill="url(#paint0_linear)"/>
<path d="M66.5625 45.1374C59.5312 38.1062 49.7812 33.7 39 33.7C28.2187 33.7 18.4688 38.1062 11.4375 45.1374C4.40626 52.1687 0 61.9187 0 72.7C0 83.4812 4.40626 93.2312 11.4375 100.262C18.4688 107.294 28.2187 111.7 39 111.7C49.7812 111.7 59.5312 107.294 66.5625 100.262C73.5937 93.2312 78 83.4812 78 72.7C78 61.9187 73.5937 52.1687 66.5625 45.1374ZM60.1875 94.075C54.75 99.5125 47.25 102.887 38.9062 102.887C30.5625 102.887 23.0625 99.5125 17.625 94.075C12.1875 88.6374 8.81252 81.1375 8.81252 72.7937C8.81252 64.45 12.1875 56.95 17.625 51.5125C23.0625 46.075 30.5625 42.7 38.9062 42.7C47.25 42.7 54.75 46.075 60.1875 51.5125C65.625 56.95 69 64.45 69 72.7937C69 81.0437 65.625 88.5437 60.1875 94.075Z" fill="url(#paint1_linear)"/>
<circle cx="39" cy="72.7" r="31" fill="url(#paint2_radial)"/>
<defs>
<linearGradient id="paint0_linear" x1="29.0587" y1="20.9137" x2="77.2994" y2="20.9137" gradientUnits="userSpaceOnUse">
<stop stop-color="#F8C448"/>
<stop offset="0.0738402" stop-color="#F8C64B"/>
<stop offset="0.1179" stop-color="#F9CD53"/>
<stop offset="0.1542" stop-color="#FAD961"/>
<stop offset="0.1861" stop-color="#FCEA75"/>
<stop offset="0.2151" stop-color="#FFFF8F"/>
<stop offset="0.3656" stop-color="#F8C448"/>
<stop offset="0.4881" stop-color="#DE9E37"/>
<stop offset="0.6476" stop-color="#C07424"/>
<stop offset="0.7917" stop-color="#AB5516"/>
<stop offset="0.9141" stop-color="#9E430E"/>
<stop offset="1" stop-color="#993C0B"/>
</linearGradient>
<linearGradient id="paint1_linear" x1="11.31" y1="100.347" x2="66.522" y2="45.1351" gradientUnits="userSpaceOnUse">
<stop stop-color="#993C0B"/>
<stop offset="0.8495" stop-color="#FFE368"/>
<stop offset="1" stop-color="#F8C448"/>
</linearGradient>
<radialGradient id="paint2_radial" cx="0" cy="0" r="1" gradientUnits="userSpaceOnUse" gradientTransform="translate(39 72.7) rotate(90) scale(31)">
<stop stop-color="#FFFE8E"/>
<stop offset="1" stop-color="#CE943D"/>
</radialGradient>
</defs>
</svg>
