<svg width="70" height="70" viewBox="0 0 70 70" fill="none" xmlns="http://www.w3.org/2000/svg">
<path d="M26.3537 52.7111L26.3533 52.7108L19.3149 46.466L16.1569 43.6641L15.2756 42.8822H8.75737C7.48915 42.8822 6.45866 41.8545 6.45866 40.5839V40.5705V40.557V40.5433V40.5296V40.5157V40.5017V40.4877V40.4735V40.4593V40.4449V40.4304V40.4159V40.4012V40.3865V40.3716V40.3567V40.3416V40.3265V40.3112V40.2959V40.2805V40.265V40.2493V40.2336V40.2178V40.2019V40.1859V40.1698V40.1536V40.1374V40.121V40.1045V40.088V40.0714V40.0546V40.0378V40.0209V40.0039V39.9868V39.9697V39.9524V39.9351V39.9176V39.9001V39.8825V39.8648V39.8471V39.8292V39.8113V39.7932V39.7751V39.7569V39.7386V39.7203V39.7019V39.6833V39.6647V39.646V39.6273V39.6084V39.5895V39.5705V39.5514V39.5323V39.5131V39.4937V39.4744V39.4549V39.4353V39.4157V39.396V39.3763V39.3564V39.3365V39.3165V39.2965V39.2763V39.2561V39.2358V39.2155V39.1951V39.1746V39.154V39.1334V39.1127V39.0919V39.0711V39.0501V39.0292V39.0081V38.987V38.9658V38.9446V38.9233V38.9019V38.8805V38.8589V38.8374V38.8157V38.794V38.7723V38.7505V38.7286V38.7066V38.6846V38.6625V38.6404V38.6182V38.596V38.5736V38.5513V38.5288V38.5063V38.4838V38.4612V38.4385V38.4158V38.393V38.3702V38.3473V38.3244V38.3014V38.2783V38.2552V38.2321V38.2089V38.1856V38.1623V38.1389V38.1155V38.092V38.0685V38.045V38.0213V37.9977V37.974V37.9502V37.9264V37.9025V37.8786V37.8546V37.8306V37.8066V37.7825V37.7584V37.7342V37.7099V37.6857V37.6614V37.637V37.6126V37.5881V37.5637V37.5391V37.5146V37.4899V37.4653V37.4406V37.4159V37.3911V37.3663V37.3414V37.3165V37.2916V37.2667V37.2417V37.2166V37.1916V37.1664V37.1413V37.1161V37.0909V37.0657V37.0404V37.0151V36.9897V36.9644V36.9389V36.9135V36.888V36.8625V36.837V36.8114V36.7858V36.7602V36.7346V36.7089V36.6832V36.6575V36.6317V36.6059V36.5801V36.5543V36.5284V36.5025V36.4766V36.4506V36.4247V36.3987V36.3727V36.3466V36.3206V36.2945V36.2684V36.2423V36.2162V36.19V36.1638V36.1376V36.1114V36.0852V36.0589V36.0326V36.0063V35.98V35.9537V35.9274V35.901V35.8746V35.8483V35.8219V35.7954V35.769V35.7426V35.7161V35.6896V35.6632V35.6367V35.6102V35.5837V35.5571V35.5306V35.504V35.4775V35.4509V35.4244V35.3978V35.3712V35.3446V35.318V35.2914V35.2648V35.2382V35.2115V35.1849V35.1583V35.1316V35.105V35.0783V35.0517V35.025V34.9984V34.9717V34.9451V34.9184V34.8918V34.8651V34.8385V34.8118V34.7852V34.7585V34.7318V34.7052V34.6786V34.6519V34.6253V34.5986V34.572V34.5454V34.5188V34.4922V34.4655V34.4389V34.4124V34.3858V34.3592V34.3326V34.3061V34.2795V34.253V34.2264V34.1999V34.1734V34.1469V34.1204V34.0939V34.0674V34.041V34.0145V33.9881V33.9617V33.9353V33.9089V33.8825V33.8562V33.8298V33.8035V33.7772V33.7509V33.7246V33.6984V33.6721V33.6459V33.6197V33.5935V33.5674V33.5412V33.5151V33.489V33.463V33.4369V33.4109V33.3849V33.3589V33.3329V33.307V33.281V33.2552V33.2293V33.2035V33.1776V33.1519V33.1261V33.1004V33.0746V33.049V33.0233V32.9977V32.9721V32.9465V32.921V32.8955V32.87V32.8446V32.8192V32.7938V32.7685V32.7432V32.7179V32.6926V32.6674V32.6422V32.6171V32.592V32.5669V32.5419V32.5169V32.4919V32.467V32.4421V32.4173V32.3925V32.3677V32.3429V32.3183V32.2936V32.269V32.2444V32.2199V32.1954V32.171V32.1466V32.1222V32.0979V32.0736V32.0494V32.0252V32.001V31.977V31.9529V31.9289V31.9049V31.881V31.8572V31.8334V31.8096V31.7859V31.7622V31.7386V31.715V31.6915V31.668V31.6446V31.6212V31.5979V31.5747V31.5515V31.5283V31.5052V31.4821V31.4592V31.4362V31.4133V31.3905V31.3677V31.345V31.3223V31.2997V31.2772V31.2547V31.2323V31.2099V31.1876V31.1653V31.1431V31.121V31.0989V31.0769V31.055V31.0331V31.0113V30.9895V30.9678V30.9462V30.9246V30.9031V30.8816V30.8603V30.839V30.8177V30.7965V30.7754V30.7544V30.7334V30.7125V30.6916V30.6709V30.6502V30.6295V30.609V30.5885V30.5681V30.5477V30.5274V30.5072V30.4871V30.467V30.447V30.4271V30.4073V30.3875V30.3678V30.3482V30.3287V30.3092V30.2898V30.2705V30.2513V30.2321V30.213V30.194V30.1751V30.1563V30.1375V30.1188V30.1002V30.0817V30.0633V30.0449V30.0266V30.0084V29.9903V29.9723V29.9544V29.9365V29.9187V29.901V29.8834V29.8659V29.8485V29.8311V29.8139V29.7967V29.7796V29.7626V29.7457V29.7289V29.7122V29.6955V29.679V29.6625V29.6462V29.6299V29.6137V29.5976V29.5816V29.5657V29.5499V29.5342V29.5186V29.5031V29.4876V29.4723V29.4571V29.4419V29.4269V29.4119V29.3971V29.3823V29.3677V29.3531V29.3386V29.3243V29.31V29.2959V29.2818V29.2678V29.254V29.2402V29.2266V29.213V29.1996C6.45866 27.9292 7.48858 26.9009 8.75737 26.9009H8.76895H8.7806H8.79232H8.80411H8.81598H8.82792H8.83992H8.852H8.86414H8.87636H8.88864H8.90099H8.91341H8.9259H8.93845H8.95107H8.96376H8.97651H8.98933H9.00221H9.01516H9.02818H9.04126H9.0544H9.0676H9.08087H9.0942H9.1076H9.12105H9.13457H9.14815H9.16179H9.17549H9.18925H9.20307H9.21695H9.23089H9.24489H9.25894H9.27306H9.28723H9.30146H9.31574H9.33008H9.34448H9.35893H9.37344H9.38801H9.40263H9.4173H9.43203H9.44681H9.46164H9.47652H9.49146H9.50645H9.5215H9.53659H9.55173H9.56693H9.58217H9.59747H9.61281H9.6282H9.64365H9.65914H9.67467H9.69026H9.70589H9.72157H9.7373H9.75307H9.76889H9.78475H9.80066H9.81661H9.83261H9.84865H9.86473H9.88086H9.89703H9.91324H9.92949H9.94579H9.96213H9.97851H9.99492H10.0114H10.0279H10.0444H10.061H10.0776H10.0943H10.111H10.1277H10.1445H10.1613H10.1781H10.195H10.2119H10.2288H10.2458H10.2628H10.2799H10.297H10.3141H10.3312H10.3484H10.3656H10.3829H10.4002H10.4175H10.4348H10.4522H10.4696H10.487H10.5045H10.522H10.5395H10.557H10.5746H10.5922H10.6098H10.6275H10.6452H10.6629H10.6806H10.6984H10.7162H10.734H10.7518H10.7697H10.7876H10.8055H10.8234H10.8413H10.8593H10.8773H10.8953H10.9133H10.9314H10.9495H10.9676H10.9857H11.0038H11.022H11.0401H11.0583H11.0765H11.0948H11.113H11.1312H11.1495H11.1678H11.1861H11.2044H11.2228H11.2411H11.2595H11.2778H11.2962H11.3146H11.333H11.3515H11.3699H11.3883H11.4068H11.4253H11.4438H11.4622H11.4807H11.4992H11.5178H11.5363H11.5548H11.5733H11.5919H11.6104H11.629H11.6476H11.6661H11.6847H11.7033H11.7219H11.7405H11.7591H11.7777H11.7963H11.8149H11.8335H11.8521H11.8707H11.8893H11.9079H11.9265H11.9451H11.9637H11.9823H12.0009H12.0196H12.0382H12.0568H12.0754H12.094H12.1126H12.1311H12.1497H12.1683H12.1869H12.2055H12.224H12.2426H12.2611H12.2797H12.2982H12.3168H12.3353H12.3538H12.3723H12.3908H12.4093H12.4278H12.4463H12.4647H12.4832H12.5016H12.5201H12.5385H12.5569H12.5753H12.5936H12.612H12.6304H12.6487H12.667H12.6853H12.7036H12.7219H12.7402H12.7584H12.7767H12.7949H12.8131H12.8312H12.8494H12.8675H12.8857H12.9038H12.9219H12.9399H12.958H12.976H12.994H13.012H13.0299H13.0479H13.0658H13.0837H13.1015H13.1194H13.1372H13.155H13.1728H13.1905H13.2082H13.2259H13.2436H13.2612H13.2788H13.2964H13.314H13.3315H13.349H13.3665H13.3839H13.4014H13.4187H13.4361H13.4534H13.4707H13.488H13.5052H13.5224H13.5396H13.5567H13.5738H13.5909H13.6079H13.6249H13.6419H13.6588H13.6757H13.6925H13.7093H13.7261H13.7429H13.7596H13.7763H13.7929H13.8095H13.826H13.8425H13.859H13.8755H13.8919H13.9082H13.9245H13.9408H13.957H13.9732H13.9894H14.0055H14.0215H14.0375H14.0535H14.0694H14.0853H14.1012H14.1169H14.1327H14.1484H14.164H14.1797H14.1952H14.2107H14.2262H14.2416H14.257H14.2723H14.2875H14.3028H14.3179H14.333H14.3481H14.3631H14.3781H14.393H14.4078H14.4226H14.4374H14.4521H14.4667H14.4813H14.4959H14.5103H14.5248H14.5391H14.5534H14.5677H14.5819H14.596H14.6101H14.6241H14.6381H14.652H14.6658H14.6796H14.6933H14.707H14.7206H14.7342H14.7476H14.7611H14.7744H14.7877H14.801H14.8141H14.8272H14.8403H14.8532H14.8662H14.879H14.8918H14.9045H14.9172H14.9297H14.9423H14.9547H14.9671H14.9794H14.9916H15.0038H15.0159H15.028H15.0399H15.0518H15.0636H15.0754H15.0871H15.0987H15.1102H15.1217H15.1331H15.1444H15.1556H15.1668H15.1779H15.1889H15.1999H15.2108H15.2216H15.2323H15.2429H15.2535H15.264H15.2744H15.2757L26.3526 17.0734C26.3529 17.0731 26.3531 17.0729 26.3533 17.0727C27.0712 16.4355 28.0952 16.2804 28.9685 16.6724L26.3537 52.7111ZM26.3537 52.7111C27.0706 53.3468 28.0949 53.5041 28.97 53.1104C29.8458 52.7167 30.4076 51.8464 30.4076 50.8875V50.8505V50.8132V50.7756V50.7377V50.6995V50.661V50.6222V50.5831V50.5437V50.504V50.4641V50.4238V50.3833V50.3425V50.3014V50.26V50.2183V50.1764V50.1342V50.0917V50.0489V50.0058V49.9625V49.9189V49.875V49.8309V49.7865V49.7418V49.6969V49.6516V49.6062V49.5604V49.5144V49.4682V49.4216V49.3748V49.3278V49.2805V49.2329V49.1851V49.1371V49.0887V49.0402V48.9913V48.9423V48.893V48.8434V48.7936V48.7436V48.6933V48.6427V48.592V48.5409V48.4897V48.4382V48.3865V48.3345V48.2823V48.2299V48.1773V48.1244V48.0713V48.0179V47.9643V47.9106V47.8565V47.8023V47.7478V47.6932V47.6383V47.5831V47.5278V47.4723V47.4165V47.3605V47.3043V47.2479V47.1913V47.1345V47.0775V47.0202V46.9628V46.9051V46.8473V46.7893V46.731V46.6726V46.6139V46.5551V46.496V46.4368V46.3774V46.3177V46.2579V46.1979V46.1377V46.0774V46.0168V45.9561V45.8951V45.834V45.7727V45.7112V45.6496V45.5877V45.5257V45.4635V45.4012V45.3386V45.2759V45.2131V45.15V45.0868V45.0234V44.9598V44.8961V44.8322V44.7682V44.704V44.6396V44.5751V44.5104V44.4456V44.3806V44.3154V44.2501V44.1846V44.119V44.0533V43.9874V43.9213V43.8551V43.7888V43.7223V43.6556V43.5888V43.5219V43.4549V43.3877V43.3203V43.2529V43.1853V43.1175V43.0496V42.9816V42.9135V42.8452V42.7769V42.7083V42.6397V42.5709V42.502V42.433V42.3639V42.2947V42.2253V42.1558V42.0862V42.0165V41.9466V41.8767V41.8066V41.7365V41.6662V41.5958V41.5253V41.4547V41.384V41.3132V41.2423V41.1713V41.1002V41.029V40.9577V40.8863V40.8148V40.7432V40.6716V40.5998V40.5279V40.456V40.3839V40.3118V40.2396V40.1673V40.0949V40.0225V39.9499V39.8773V39.8046V39.7318V39.659V39.5861V39.5131V39.44V39.3668V39.2936V39.2203V39.147V39.0736V39.0001V38.9265V38.8529V38.7792V38.7055V38.6317V38.5578V38.4839V38.41V38.3359V38.2619V38.1877V38.1136V38.0393V37.965V37.8907V37.8163V37.7419V37.6674V37.5929V37.5184V37.4438V37.3692V37.2945V37.2198V37.145V37.0702V36.9954V36.9206V36.8457V36.7708V36.6959V36.6209V36.5459V36.4709V36.3958V36.3208V36.2457V36.1706V36.0954V36.0203V35.9451V35.8699V35.7947V35.7195V35.6443V35.569V35.4938V35.4185V35.3433V35.268V35.1927V35.1174V35.0421V34.9668V34.8916V34.8163V34.741V34.6657V34.5904V34.5151V34.4399V34.3646V34.2893V34.2141V34.1388V34.0636V33.9884V33.9132V33.838V33.7628V33.6877V33.6126V33.5375V33.4624V33.3873V33.3122V33.2372V33.1622V33.0873V33.0123V32.9374V32.8625V32.7877V32.7129V32.6381V32.5633V32.4886V32.414V32.3393V32.2647V32.1902V32.1157V32.0412V31.9668V31.8924V31.8181V31.7438V31.6696V31.5954V31.5213V31.4472V31.3731V31.2992V31.2253V31.1514V31.0776V31.0039V30.9302V30.8566V30.783V30.7096V30.6361V30.5628V30.4895V30.4163V30.3431V30.2701V30.1971V30.1241V30.0513V29.9785V29.9058V29.8332V29.7606V29.6882V29.6158V29.5435V29.4713V29.3992V29.3271V29.2552V29.1833V29.1116V29.0399V28.9683V28.8968V28.8254V28.7541V28.6829V28.6118V28.5408V28.4699V28.3991V28.3284V28.2578V28.1873V28.1169V28.0466V27.9765V27.9064V27.8365V27.7666V27.6969V27.6273V27.5578V27.4885V27.4192V27.3501V27.2811V27.2122V27.1434V27.0748V27.0063V26.9379V26.8696V26.8015V26.7335V26.6656V26.5979V26.5303V26.4628V26.3954V26.3283V26.2612V26.1943V26.1275V26.0609V25.9944V25.928V25.8618V25.7958V25.7298V25.6641V25.5985V25.533V25.4677V25.4025V25.3376V25.2727V25.208V25.1435V25.0791V25.0149V24.9509V24.887V24.8233V24.7597V24.6963V24.6331V24.5701V24.5072V24.4445V24.3819V24.3196V24.2574V24.1954V24.1335V24.0719V24.0104V23.9491V23.888V23.8271V23.7663V23.7057V23.6454V23.5852V23.5252V23.4654V23.4058V23.3463V23.2871V23.2281V23.1692V23.1106V23.0521V22.9939V22.9358V22.878V22.8203V22.7629V22.7057V22.6486V22.5918V22.5352V22.4788V22.4226V22.3666V22.3109V22.2553V22.2V22.1449V22.09V22.0353V21.9808V21.9266V21.8726V21.8188V21.7652V21.7119V21.6587V21.6059V21.5532V21.5008V21.4486V21.3966V21.3449V21.2934V21.2422V21.1912V21.1404V21.0899V21.0396V20.9895V20.9397V20.8901V20.8408V20.7918V20.7429V20.6944V20.6461V20.598V20.5502V20.5026V20.4553V20.4083V20.3615V20.315V20.2687V20.2227V20.1769V20.1315V20.0863V20.0413V19.9966V19.9522V19.9081V19.8642V19.8206V19.7773V19.7342V19.6914V19.6489V19.6067V19.5648V19.5231V19.4817V19.4406V19.3998V19.3593V19.319V19.2791V19.2394V19.2V19.1609V19.1221V19.0836V19.0454V19.0075V18.9699V18.9326V18.8956C30.4076 17.9383 29.8468 17.0667 28.9696 16.6729L26.3537 52.7111Z" fill="#FCB02B" stroke="white" stroke-width="4"/>
<path fill-rule="evenodd" clip-rule="evenodd" d="M42.1216 24.6431L40.0003 26.7644L48.5999 35.364L40 43.9639L42.1213 46.0852L50.7212 37.4853L58.9142 45.6783L61.0355 43.557L52.8425 35.364L61.0352 27.1713L58.9139 25.05L50.7212 33.2427L42.1216 24.6431Z" fill="white"/>
</svg>
