<svg width="70" height="70" viewBox="0 0 70 70" fill="none" xmlns="http://www.w3.org/2000/svg">
<path d="M26.3537 53.068L26.3533 53.0677L19.3149 46.8229L16.1569 44.021L15.2756 43.2391H8.75737C7.48915 43.2391 6.45866 42.2115 6.45866 40.9409V40.9274V40.9139V40.9002V40.8865V40.8726V40.8587V40.8446V40.8305V40.8162V40.8018V40.7874V40.7728V40.7582V40.7434V40.7286V40.7136V40.6986V40.6834V40.6682V40.6528V40.6374V40.6219V40.6063V40.5905V40.5747V40.5588V40.5428V40.5268V40.5106V40.4943V40.4779V40.4615V40.4449V40.4283V40.4116V40.3947V40.3778V40.3609V40.3438V40.3266V40.3093V40.292V40.2746V40.257V40.2394V40.2218V40.204V40.1861V40.1682V40.1502V40.132V40.1139V40.0956V40.0772V40.0588V40.0403V40.0217V40.003V39.9842V39.9654V39.9465V39.9275V39.9084V39.8892V39.87V39.8507V39.8313V39.8118V39.7923V39.7727V39.753V39.7332V39.7134V39.6935V39.6735V39.6534V39.6333V39.6131V39.5928V39.5724V39.552V39.5315V39.5109V39.4903V39.4696V39.4488V39.428V39.4071V39.3861V39.3651V39.3439V39.3228V39.3015V39.2802V39.2588V39.2374V39.2159V39.1943V39.1727V39.151V39.1292V39.1074V39.0855V39.0635V39.0415V39.0195V38.9973V38.9751V38.9529V38.9306V38.9082V38.8858V38.8633V38.8407V38.8181V38.7955V38.7728V38.75V38.7271V38.7043V38.6813V38.6583V38.6353V38.6122V38.589V38.5658V38.5425V38.5192V38.4959V38.4725V38.449V38.4255V38.4019V38.3783V38.3546V38.3309V38.3071V38.2833V38.2594V38.2355V38.2116V38.1876V38.1635V38.1394V38.1153V38.0911V38.0669V38.0426V38.0183V37.9939V37.9695V37.9451V37.9206V37.8961V37.8715V37.8469V37.8222V37.7975V37.7728V37.748V37.7232V37.6984V37.6735V37.6486V37.6236V37.5986V37.5736V37.5485V37.5234V37.4982V37.4731V37.4479V37.4226V37.3973V37.372V37.3467V37.3213V37.2959V37.2704V37.245V37.2195V37.1939V37.1684V37.1428V37.1172V37.0915V37.0658V37.0401V37.0144V36.9886V36.9628V36.937V36.9112V36.8853V36.8594V36.8335V36.8076V36.7816V36.7556V36.7296V36.7036V36.6775V36.6514V36.6253V36.5992V36.5731V36.5469V36.5207V36.4945V36.4683V36.4421V36.4158V36.3896V36.3633V36.337V36.3106V36.2843V36.2579V36.2316V36.2052V36.1788V36.1524V36.1259V36.0995V36.073V36.0466V36.0201V35.9936V35.9671V35.9406V35.9141V35.8875V35.861V35.8344V35.8079V35.7813V35.7547V35.7281V35.7015V35.6749V35.6483V35.6217V35.5951V35.5685V35.5418V35.5152V35.4886V35.4619V35.4353V35.4086V35.382V35.3553V35.3287V35.302V35.2754V35.2487V35.222V35.1954V35.1687V35.1421V35.1154V35.0888V35.0621V35.0355V35.0088V34.9822V34.9556V34.9289V34.9023V34.8757V34.8491V34.8225V34.7959V34.7693V34.7427V34.7161V34.6895V34.663V34.6364V34.6099V34.5834V34.5568V34.5303V34.5038V34.4773V34.4508V34.4244V34.3979V34.3715V34.345V34.3186V34.2922V34.2658V34.2395V34.2131V34.1868V34.1604V34.1341V34.1078V34.0816V34.0553V34.0291V34.0029V33.9767V33.9505V33.9243V33.8982V33.8721V33.846V33.8199V33.7938V33.7678V33.7418V33.7158V33.6898V33.6639V33.638V33.6121V33.5862V33.5604V33.5346V33.5088V33.483V33.4573V33.4316V33.4059V33.3803V33.3546V33.329V33.3035V33.2779V33.2524V33.227V33.2015V33.1761V33.1507V33.1254V33.1001V33.0748V33.0496V33.0243V32.9992V32.974V32.9489V32.9239V32.8988V32.8738V32.8489V32.8239V32.799V32.7742V32.7494V32.7246V32.6999V32.6752V32.6505V32.6259V32.6014V32.5768V32.5523V32.5279V32.5035V32.4791V32.4548V32.4305V32.4063V32.3821V32.358V32.3339V32.3098V32.2858V32.2619V32.238V32.2141V32.1903V32.1665V32.1428V32.1191V32.0955V32.0719V32.0484V32.025V32.0015V31.9782V31.9549V31.9316V31.9084V31.8852V31.8621V31.8391V31.8161V31.7931V31.7703V31.7474V31.7247V31.7019V31.6793V31.6567V31.6341V31.6116V31.5892V31.5668V31.5445V31.5223V31.5001V31.4779V31.4559V31.4339V31.4119V31.39V31.3682V31.3464V31.3247V31.3031V31.2815V31.26V31.2386V31.2172V31.1959V31.1746V31.1535V31.1324V31.1113V31.0903V31.0694V31.0486V31.0278V31.0071V30.9865V30.9659V30.9454V30.925V30.9046V30.8844V30.8641V30.844V30.824V30.804V30.784V30.7642V30.7444V30.7247V30.7051V30.6856V30.6661V30.6467V30.6274V30.6082V30.589V30.57V30.551V30.532V30.5132V30.4944V30.4757V30.4571V30.4386V30.4202V30.4018V30.3836V30.3654V30.3473V30.3292V30.3113V30.2934V30.2757V30.258V30.2404V30.2228V30.2054V30.1881V30.1708V30.1536V30.1366V30.1196V30.1027V30.0858V30.0691V30.0525V30.0359V30.0195V30.0031V29.9868V29.9707V29.9546V29.9386V29.9227V29.9069V29.8911V29.8755V29.86V29.8446V29.8292V29.814V29.7988V29.7838V29.7688V29.754V29.7392V29.7246V29.71V29.6956V29.6812V29.667V29.6528V29.6387V29.6248V29.6109V29.5972V29.5835V29.57V29.5565C6.45866 28.2861 7.48858 27.2579 8.75737 27.2579H8.76895H8.7806H8.79232H8.80411H8.81598H8.82792H8.83992H8.852H8.86414H8.87636H8.88864H8.90099H8.91341H8.9259H8.93845H8.95107H8.96376H8.97651H8.98933H9.00221H9.01516H9.02818H9.04126H9.0544H9.0676H9.08087H9.0942H9.1076H9.12105H9.13457H9.14815H9.16179H9.17549H9.18925H9.20307H9.21695H9.23089H9.24489H9.25894H9.27306H9.28723H9.30146H9.31574H9.33008H9.34448H9.35893H9.37344H9.38801H9.40263H9.4173H9.43203H9.44681H9.46164H9.47652H9.49146H9.50645H9.5215H9.53659H9.55173H9.56693H9.58217H9.59747H9.61281H9.6282H9.64365H9.65914H9.67467H9.69026H9.70589H9.72157H9.7373H9.75307H9.76889H9.78475H9.80066H9.81661H9.83261H9.84865H9.86473H9.88086H9.89703H9.91324H9.92949H9.94579H9.96213H9.97851H9.99492H10.0114H10.0279H10.0444H10.061H10.0776H10.0943H10.111H10.1277H10.1445H10.1613H10.1781H10.195H10.2119H10.2288H10.2458H10.2628H10.2799H10.297H10.3141H10.3312H10.3484H10.3656H10.3829H10.4002H10.4175H10.4348H10.4522H10.4696H10.487H10.5045H10.522H10.5395H10.557H10.5746H10.5922H10.6098H10.6275H10.6452H10.6629H10.6806H10.6984H10.7162H10.734H10.7518H10.7697H10.7876H10.8055H10.8234H10.8413H10.8593H10.8773H10.8953H10.9133H10.9314H10.9495H10.9676H10.9857H11.0038H11.022H11.0401H11.0583H11.0765H11.0948H11.113H11.1312H11.1495H11.1678H11.1861H11.2044H11.2228H11.2411H11.2595H11.2778H11.2962H11.3146H11.333H11.3515H11.3699H11.3883H11.4068H11.4253H11.4438H11.4622H11.4807H11.4992H11.5178H11.5363H11.5548H11.5733H11.5919H11.6104H11.629H11.6476H11.6661H11.6847H11.7033H11.7219H11.7405H11.7591H11.7777H11.7963H11.8149H11.8335H11.8521H11.8707H11.8893H11.9079H11.9265H11.9451H11.9637H11.9823H12.0009H12.0196H12.0382H12.0568H12.0754H12.094H12.1126H12.1311H12.1497H12.1683H12.1869H12.2055H12.224H12.2426H12.2611H12.2797H12.2982H12.3168H12.3353H12.3538H12.3723H12.3908H12.4093H12.4278H12.4463H12.4647H12.4832H12.5016H12.5201H12.5385H12.5569H12.5753H12.5936H12.612H12.6304H12.6487H12.667H12.6853H12.7036H12.7219H12.7402H12.7584H12.7767H12.7949H12.8131H12.8312H12.8494H12.8675H12.8857H12.9038H12.9219H12.9399H12.958H12.976H12.994H13.012H13.0299H13.0479H13.0658H13.0837H13.1015H13.1194H13.1372H13.155H13.1728H13.1905H13.2082H13.2259H13.2436H13.2612H13.2788H13.2964H13.314H13.3315H13.349H13.3665H13.3839H13.4014H13.4187H13.4361H13.4534H13.4707H13.488H13.5052H13.5224H13.5396H13.5567H13.5738H13.5909H13.6079H13.6249H13.6419H13.6588H13.6757H13.6925H13.7093H13.7261H13.7429H13.7596H13.7763H13.7929H13.8095H13.826H13.8425H13.859H13.8755H13.8919H13.9082H13.9245H13.9408H13.957H13.9732H13.9894H14.0055H14.0215H14.0375H14.0535H14.0694H14.0853H14.1012H14.1169H14.1327H14.1484H14.164H14.1797H14.1952H14.2107H14.2262H14.2416H14.257H14.2723H14.2875H14.3028H14.3179H14.333H14.3481H14.3631H14.3781H14.393H14.4078H14.4226H14.4374H14.4521H14.4667H14.4813H14.4959H14.5103H14.5248H14.5391H14.5534H14.5677H14.5819H14.596H14.6101H14.6241H14.6381H14.652H14.6658H14.6796H14.6933H14.707H14.7206H14.7342H14.7476H14.7611H14.7744H14.7877H14.801H14.8141H14.8272H14.8403H14.8532H14.8662H14.879H14.8918H14.9045H14.9172H14.9297H14.9423H14.9547H14.9671H14.9794H14.9916H15.0038H15.0159H15.028H15.0399H15.0518H15.0636H15.0754H15.0871H15.0987H15.1102H15.1217H15.1331H15.1444H15.1556H15.1668H15.1779H15.1889H15.1999H15.2108H15.2216H15.2323H15.2429H15.2535H15.264H15.2744H15.2757L26.3526 17.4303C26.3529 17.4301 26.3531 17.4299 26.3533 17.4297C27.0712 16.7924 28.0952 16.6373 28.9685 17.0294L26.3537 53.068ZM26.3537 53.068C27.0706 53.7038 28.0949 53.861 28.97 53.4674C29.8458 53.0736 30.4076 52.2034 30.4076 51.2445V51.2075V51.1701V51.1325V51.0946V51.0564V51.0179V50.9791V50.94V50.9006V50.861V50.821V50.7808V50.7402V50.6994V50.6583V50.6169V50.5753V50.5333V50.4911V50.4486V50.4058V50.3628V50.3195V50.2759V50.232V50.1878V50.1434V50.0987V50.0538V50.0086V49.9631V49.9174V49.8714V49.8251V49.7786V49.7318V49.6847V49.6374V49.5899V49.5421V49.494V49.4457V49.3971V49.3483V49.2992V49.2499V49.2003V49.1505V49.1005V49.0502V48.9997V48.9489V48.8979V48.8466V48.7951V48.7434V48.6915V48.6393V48.5868V48.5342V48.4813V48.4282V48.3748V48.3213V48.2675V48.2135V48.1592V48.1048V48.0501V47.9952V47.9401V47.8847V47.8292V47.7734V47.7174V47.6613V47.6049V47.5482V47.4914V47.4344V47.3772V47.3197V47.2621V47.2042V47.1462V47.0879V47.0295V46.9708V46.912V46.853V46.7937V46.7343V46.6747V46.6149V46.5549V46.4947V46.4343V46.3737V46.313V46.2521V46.1909V46.1296V46.0682V46.0065V45.9447V45.8827V45.8205V45.7581V45.6956V45.6329V45.57V45.5069V45.4437V45.3803V45.3168V45.2531V45.1892V45.1251V45.0609V44.9966V44.932V44.8673V44.8025V44.7375V44.6723V44.607V44.5416V44.476V44.4102V44.3443V44.2782V44.212V44.1457V44.0792V44.0126V43.9458V43.8789V43.8118V43.7446V43.6773V43.6098V43.5422V43.4745V43.4066V43.3386V43.2704V43.2022V43.1338V43.0653V42.9966V42.9279V42.859V42.79V42.7208V42.6516V42.5822V42.5127V42.4431V42.3734V42.3036V42.2336V42.1636V42.0934V42.0231V41.9528V41.8823V41.8117V41.741V41.6702V41.5993V41.5283V41.4571V41.3859V41.3146V41.2432V41.1718V41.1002V41.0285V40.9567V40.8849V40.8129V40.7409V40.6687V40.5965V40.5242V40.4519V40.3794V40.3069V40.2342V40.1615V40.0888V40.0159V39.943V39.87V39.7969V39.7238V39.6506V39.5773V39.5039V39.4305V39.357V39.2835V39.2098V39.1362V39.0624V38.9886V38.9148V38.8409V38.7669V38.6929V38.6188V38.5447V38.4705V38.3963V38.322V38.2476V38.1733V38.0988V38.0244V37.9499V37.8753V37.8007V37.7261V37.6514V37.5767V37.502V37.4272V37.3524V37.2775V37.2026V37.1277V37.0528V36.9778V36.9028V36.8278V36.7528V36.6777V36.6026V36.5275V36.4524V36.3772V36.302V36.2269V36.1517V36.0764V36.0012V35.926V35.8507V35.7755V35.7002V35.6249V35.5496V35.4744V35.3991V35.3238V35.2485V35.1732V35.0979V35.0226V34.9473V34.8721V34.7968V34.7215V34.6463V34.571V34.4958V34.4205V34.3453V34.2701V34.1949V34.1198V34.0446V33.9695V33.8944V33.8193V33.7442V33.6692V33.5942V33.5192V33.4442V33.3693V33.2943V33.2195V33.1446V33.0698V32.995V32.9203V32.8456V32.7709V32.6963V32.6217V32.5471V32.4726V32.3981V32.3237V32.2493V32.175V32.1007V32.0265V31.9523V31.8782V31.8041V31.7301V31.6561V31.5822V31.5083V31.4346V31.3608V31.2871V31.2135V31.14V31.0665V30.9931V30.9197V30.8464V30.7732V30.7001V30.627V30.554V30.4811V30.4082V30.3354V30.2627V30.1901V30.1176V30.0451V29.9727V29.9004V29.8282V29.7561V29.6841V29.6121V29.5403V29.4685V29.3968V29.3252V29.2537V29.1823V29.111V29.0398V28.9687V28.8977V28.8268V28.756V28.6853V28.6147V28.5442V28.4739V28.4036V28.3334V28.2634V28.1934V28.1236V28.0539V27.9843V27.9148V27.8454V27.7761V27.707V27.638V27.5691V27.5003V27.4317V27.3632V27.2948V27.2265V27.1584V27.0904V27.0225V26.9548V26.8872V26.8197V26.7524V26.6852V26.6181V26.5512V26.4844V26.4178V26.3513V26.2849V26.2187V26.1527V26.0868V26.021V25.9554V25.8899V25.8246V25.7595V25.6945V25.6296V25.565V25.5004V25.4361V25.3719V25.3078V25.2439V25.1802V25.1167V25.0533V24.99V24.927V24.8641V24.8014V24.7389V24.6765V24.6143V24.5523V24.4905V24.4288V24.3673V24.306V24.2449V24.184V24.1232V24.0627V24.0023V23.9421V23.8821V23.8223V23.7627V23.7033V23.644V23.585V23.5261V23.4675V23.409V23.3508V23.2928V23.2349V23.1773V23.1198V23.0626V23.0056V22.9487V22.8921V22.8357V22.7795V22.7236V22.6678V22.6122V22.5569V22.5018V22.4469V22.3922V22.3377V22.2835V22.2295V22.1757V22.1221V22.0688V22.0157V21.9628V21.9101V21.8577V21.8055V21.7536V21.7018V21.6504V21.5991V21.5481V21.4973V21.4468V21.3965V21.3464V21.2966V21.2471V21.1978V21.1487V21.0999V21.0513V21.003V20.9549V20.9071V20.8596V20.8123V20.7652V20.7184V20.6719V20.6256V20.5796V20.5339V20.4884V20.4432V20.3982V20.3536V20.3091V20.265V20.2211V20.1775V20.1342V20.0912V20.0484V20.0059V19.9637V19.9217V19.88V19.8387V19.7976V19.7567V19.7162V19.676V19.636V19.5963V19.557V19.5179V19.4791V19.4406V19.4024V19.3645V19.3268V19.2895V19.2525C30.4076 18.2952 29.8468 17.4236 28.9696 17.0299L26.3537 53.068Z" fill="#FCB02B" stroke="white" stroke-width="4"/>
<mask id="mask0" mask-type="alpha" maskUnits="userSpaceOnUse" x="31" y="-4" width="79" height="78">
<rect x="31.3503" y="35" width="55.1543" height="55.1543" transform="rotate(-45 31.3503 35)" fill="#C4C4C4"/>
</mask>
<g mask="url(#mask0)">
<circle cx="32.2472" cy="35.0118" r="10.7618" stroke="white" stroke-width="4"/>
<circle cx="32.2472" cy="35.0116" r="19.2816" stroke="white" stroke-width="4"/>
<circle cx="32.247" cy="35.0117" r="28.6982" stroke="white" stroke-width="4"/>
</g>
</svg>
