<svg width="43" height="40" viewBox="0 0 43 40" fill="none" xmlns="http://www.w3.org/2000/svg">
<path fill-rule="evenodd" clip-rule="evenodd" d="M15 3H39C39.5523 3 40 3.44772 40 4V27C40 27.5523 39.5523 28 39 28H26V18C26 15.7909 24.2091 14 22 14H14V4C14 3.44772 14.4477 3 15 3ZM11 14V4C11 1.79086 12.7909 0 15 0H39C41.2091 0 43 1.79086 43 4V27C43 29.2091 41.2091 31 39 31H26V36C26 38.2091 24.2091 40 22 40H4C1.79086 40 0 38.2091 0 36V18C0 15.7909 1.79086 14 4 14H11ZM23 31V36C23 36.5523 22.5523 37 22 37H4C3.44772 37 3 36.5523 3 36V18C3 17.4477 3.44772 17 4 17H11V27C11 29.2091 12.7909 31 15 31H23ZM23 28H15C14.4477 28 14 27.5523 14 27V17H22C22.5523 17 23 17.4477 23 18V28Z" fill="white"/>
</svg>
